<?xml version="1.0" standalone="no"?>
<!DOCTYPE svg PUBLIC "-//W3C//DTD SVG 20010904//EN"
 "http://www.w3.org/TR/2001/REC-SVG-20010904/DTD/svg10.dtd">
<svg version="1.0" xmlns="http://www.w3.org/2000/svg"
 width="643.000000pt" height="643.000000pt" viewBox="0 0 643.000000 643.000000"
 preserveAspectRatio="xMidYMid meet">
<metadata>
Created by potrace 1.14, written by Peter Selinger 2001-2017
</metadata>
<g transform="translate(0.000000,643.000000) scale(0.100000,-0.100000)"
fill="#000000" stroke="none">
<path d="M3057 6344 c-1 -1 -42 -4 -92 -8 -138 -9 -197 -16 -208 -23 -5 -3
-31 -8 -56 -9 -39 -3 -78 -10 -206 -39 -11 -3 -29 -7 -40 -9 -72 -16 -257 -72
-303 -93 -18 -8 -42 -15 -52 -16 -11 -1 -20 -5 -20 -9 0 -4 -6 -8 -14 -8 -32
0 -340 -149 -471 -229 -68 -42 -180 -114 -185 -120 -3 -3 -27 -22 -55 -41 -61
-42 -81 -58 -112 -87 -12 -12 -29 -26 -37 -30 -26 -15 -169 -148 -250 -232
-109 -114 -108 -113 -131 -142 -11 -15 -45 -57 -76 -95 -30 -38 -80 -105 -110
-149 -30 -44 -57 -82 -60 -85 -4 -3 -9 -15 -13 -27 -4 -13 -11 -23 -14 -23 -4
0 -16 -17 -27 -37 -11 -21 -22 -40 -25 -43 -3 -3 -19 -32 -35 -65 -17 -33 -33
-62 -36 -65 -3 -3 -16 -27 -29 -55 -40 -86 -74 -160 -75 -165 -6 -19 -27 -68
-35 -82 -6 -10 -10 -27 -10 -37 0 -11 -5 -23 -10 -26 -6 -4 -8 -11 -5 -16 4
-5 1 -9 -4 -9 -6 0 -11 -10 -11 -23 0 -13 -3 -27 -7 -31 -5 -4 -8 -11 -9 -14
0 -4 -7 -27 -14 -52 -8 -25 -15 -49 -16 -55 0 -5 -3 -17 -7 -25 -3 -8 -9 -28
-13 -45 -10 -40 -11 -45 -13 -47 -2 -2 -4 -12 -6 -23 -2 -11 -11 -51 -20 -90
-9 -38 -18 -88 -20 -110 -2 -22 -6 -50 -9 -61 -16 -73 -37 -322 -37 -449 -1
-95 9 -304 17 -360 3 -22 7 -56 10 -75 3 -19 5 -42 5 -50 0 -8 3 -22 6 -30 3
-8 7 -28 8 -45 2 -16 4 -30 5 -30 1 0 3 -11 5 -25 1 -14 8 -47 15 -75 6 -27
13 -57 15 -65 11 -54 41 -158 67 -234 17 -49 31 -94 33 -100 2 -13 20 -60 37
-96 6 -14 14 -34 18 -45 5 -11 16 -38 26 -60 10 -22 17 -43 16 -47 -1 -5 3 -8
9 -8 5 0 7 -4 4 -10 -3 -5 -1 -10 4 -10 6 0 11 -6 12 -12 0 -7 11 -33 24 -58
13 -25 33 -63 44 -85 12 -22 32 -58 46 -80 13 -22 35 -57 47 -79 13 -21 28
-47 34 -57 6 -10 20 -31 31 -46 12 -15 50 -66 84 -113 34 -47 75 -98 91 -115
15 -16 28 -33 28 -36 0 -4 17 -24 38 -46 20 -22 70 -74 110 -116 40 -42 74
-77 76 -77 2 0 27 -24 58 -52 30 -29 72 -67 94 -85 21 -17 50 -40 63 -52 13
-12 27 -21 30 -21 3 0 21 -14 38 -31 18 -16 33 -26 33 -22 0 4 4 3 8 -3 4 -6
36 -30 72 -54 36 -24 71 -50 78 -57 8 -7 17 -11 22 -8 5 3 10 1 12 -3 8 -20
282 -167 393 -212 33 -13 71 -31 85 -39 13 -9 27 -15 30 -15 7 2 103 -30 165
-56 11 -5 34 -12 50 -16 35 -8 29 -7 120 -32 59 -17 116 -30 295 -67 8 -1 44
-6 80 -10 36 -4 74 -9 85 -11 72 -16 450 -22 590 -10 146 13 240 23 240 26 0
1 11 3 25 5 14 1 68 12 120 23 52 11 106 23 120 26 14 3 50 12 80 21 30 9 62
17 71 19 8 2 32 11 52 20 20 8 37 13 37 11 0 -5 58 15 105 35 11 5 61 25 110
45 109 45 272 126 378 189 43 25 83 46 88 46 5 0 12 7 15 15 4 8 11 15 17 15
5 0 25 11 43 25 18 14 37 25 43 25 6 0 11 5 11 10 0 6 6 10 14 10 8 0 16 4 18
9 2 5 43 39 91 75 49 36 85 66 80 66 -4 0 6 9 24 20 36 21 299 282 353 349 19
24 42 51 51 61 8 11 24 31 35 45 10 15 24 33 31 40 6 7 37 50 69 96 31 46 60
86 65 87 5 2 7 7 4 12 -3 4 2 13 10 20 8 7 15 19 15 26 0 8 5 14 10 14 6 0 10
5 10 10 0 6 12 29 26 51 63 100 244 489 227 489 -3 0 -1 6 4 13 11 13 55 144
56 165 0 6 4 12 9 12 5 0 6 4 3 10 -3 6 -3 16 2 23 4 6 8 17 9 22 1 6 12 48
24 95 12 47 23 96 25 110 2 14 4 26 6 28 3 4 5 17 13 77 5 33 10 69 13 80 10
49 17 114 17 162 1 29 4 53 7 53 9 0 5 454 -4 468 -5 7 -4 12 3 12 7 0 8 6 2
18 -5 9 -10 37 -11 62 -1 25 -9 86 -18 135 -9 50 -16 102 -17 118 0 15 -5 27
-9 27 -5 0 -6 4 -3 8 5 8 -20 116 -48 213 -8 26 -12 50 -9 53 4 3 2 6 -3 6 -5
0 -10 9 -11 19 -2 21 -23 86 -47 143 -9 21 -16 39 -15 40 0 2 -4 16 -10 31 -6
16 -11 30 -11 33 0 16 -159 341 -195 399 -14 22 -28 47 -32 55 -12 26 -58 95
-65 98 -5 2 -8 8 -8 13 0 11 -100 153 -112 157 -4 2 -8 8 -8 14 0 5 -6 15 -12
23 -7 7 -29 32 -47 55 -19 23 -41 48 -48 56 -7 7 -13 16 -13 19 0 16 -316 319
-410 394 -58 45 -112 88 -121 96 -9 7 -20 14 -25 16 -5 2 -54 34 -109 70 -55
36 -116 75 -135 85 -19 10 -43 25 -52 33 -10 8 -18 11 -18 7 0 -4 -12 1 -27
11 -48 33 -198 102 -378 174 -29 11 -145 51 -159 53 -35 8 -72 20 -81 26 -5 4
-23 10 -40 13 -42 7 -84 16 -125 27 -19 5 -46 11 -60 14 -14 2 -41 7 -60 11
-19 3 -42 7 -50 9 -48 9 -175 25 -260 33 -50 4 -399 10 -403 7z"/>
</g>
</svg>
