<?xml version="1.0" encoding="utf-8"?>
<!-- Generator: Adobe Illustrator 25.0.1, SVG Export Plug-In . SVG Version: 6.00 Build 0)  -->
<svg version="1.1" id="레이어_1" xmlns="http://www.w3.org/2000/svg" xmlns:xlink="http://www.w3.org/1999/xlink" x="0px"
	 y="0px" viewBox="0 0 2048 358.02" enable-background="new 0 0 2048 358.02" xml:space="preserve">
<g>
	<g>
		<g>
			<g>
				<path fill="#231815" d="M533.7,305.41c4.4,4.5,6.5,9.9,6.5,16.3s-2.2,11.8-6.5,16.4c-4.4,4.6-10.2,6.8-17.4,6.8h-19.8v-46.2
					l19.8-0.1C523.5,298.61,529.4,300.81,533.7,305.41z M525.5,332.31c2.5-2.8,3.8-6.3,3.8-10.6c0-4.3-1.3-7.8-3.8-10.5
					s-6.1-4-10.6-4h-8.1v29.3h8.1C519.4,336.41,523,335.01,525.5,332.31z"/>
				<path fill="#231815" d="M578,344.71l-4.4-10h-21.4l-4.4,10h-10.7l20.1-46h11.2l20.3,46H578z M563,310.11l-7,16.1h13.9
					L563,310.11z"/>
				<path fill="#231815" d="M590.7,344.61v-46h37.2l0.1,8.4h-27v9.9l25.6,0.1v8.3H601v11h27.5l0.1,8.4L590.7,344.61z"/>
				<path fill="#231815" d="M666.6,344.71l-0.1-3.8c-1.3,1.2-3,2.4-5.3,3.4c-2.2,1-4.8,1.6-7.6,1.6c-7.2,0-13.1-2.3-17.5-6.8
					c-4.4-4.6-6.6-10.4-6.6-17.5s2.1-12.9,6.4-17.4c4.3-4.5,10.2-6.7,17.6-6.7c7.1,0,12.4,1.8,16.1,5.5c3.7,3.7,6,7.3,6.9,10.8
					l-11-0.1c-0.6-1.7-1.9-3.4-3.8-5.2c-1.9-1.7-4.5-2.6-7.9-2.6c-4.3,0-7.7,1.5-10.1,4.4c-2.4,2.9-3.6,6.7-3.6,11.3
					c0,4.6,1.2,8.5,3.6,11.5c2.4,3,5.7,4.5,10.1,4.5c3.7,0,6.5-1.1,8.4-3.3c1.9-2.2,3.2-4.3,3.8-6.3h-12.1v-7.8h22.8v24.8
					L666.6,344.71z"/>
				<path fill="#231815" d="M722.9,329.81c0,4.8-1.9,8.7-5.6,11.7c-3.7,3-8.8,4.5-15.1,4.5c-6.4,0-11.4-1.5-15-4.5
					s-5.5-6.9-5.5-11.7l0.1-31.4h10.4v29.2c0,2.3,0.5,4.5,1.6,6.6s3.9,3.2,8.4,3.2c4.6,0,7.4-1.1,8.5-3.2s1.7-4.4,1.7-6.6l-0.1-29.2
					h10.6L722.9,329.81L722.9,329.81z"/>
				<path fill="#231815" d="M796.1,344.81l0.1-25.5l-9.2,25.5h-11.2l-9-25v24.9l-10.1,0.1v-46.2l11.6,0.1l13.1,33.9l12.9-33.9
					l12.1-0.1v46.4L796.1,344.81z"/>
				<path fill="#231815" d="M812,344.61v-46h37.2l0.1,8.4h-27v9.9l25.6,0.1v8.3h-25.6v11h27.5l0.1,8.4L812,344.61z"/>
				<path fill="#231815" d="M878.9,307.01v37.8h-10.4l0.1-37.9h-16v-8.2h42.2v8.3L878.9,307.01L878.9,307.01z"/>
				<path fill="#231815" d="M929.2,344.81l-14.2-17.3h-6.4v17.3l-10.3-0.1v-46l21.7-0.1c5,0,9.2,1.3,12.8,4s5.3,6,5.3,9.9
					c0,3.2-1.1,6-3.2,8.6c-2.1,2.6-4.7,4.3-7.8,5.2l14.9,18.3L929.2,344.81L929.2,344.81z M924.6,317.31c1.7-1.1,2.6-2.6,2.6-4.6
					c0-1.9-0.8-3.3-2.6-4.2c-1.7-0.9-3.7-1.3-6.1-1.3h-9.9v11.8h9.9C920.9,318.91,922.9,318.41,924.6,317.31z"/>
				<path fill="#231815" d="M981.2,304.21c4.4,4.5,6.6,10.3,6.6,17.4c0,7.2-2.2,13-6.6,17.6c-4.4,4.5-10.3,6.8-17.6,6.8
					s-13.2-2.3-17.6-6.8c-4.4-4.5-6.5-10.4-6.5-17.6c0-7.1,2.2-12.9,6.5-17.4c4.4-4.5,10.2-6.7,17.6-6.7
					C970.9,297.51,976.8,299.71,981.2,304.21z M973.5,333.11c2.4-3,3.7-6.8,3.7-11.5c0-4.6-1.2-8.4-3.7-11.3
					c-2.4-2.9-5.8-4.4-10-4.4s-7.5,1.5-9.8,4.4s-3.5,6.7-3.5,11.3c0,4.6,1.2,8.5,3.5,11.5s5.6,4.5,9.8,4.5
					C967.8,337.61,971.1,336.11,973.5,333.11z"/>
				<path fill="#231815" d="M1025,303.01c3.6,2.9,5.3,6.4,5.3,10.4c0,4.1-1.8,7.6-5.3,10.6c-3.6,3-7.8,4.5-12.8,4.5h-11.5v16.4
					h-10.3v-46.2l21.8-0.1C1017.2,298.71,1021.4,300.11,1025,303.01z M1016.9,318.61c1.9-1,2.8-2.7,2.8-5.2c0-2.3-0.9-3.9-2.8-4.9
					c-1.9-0.9-3.9-1.4-6-1.4h-10.2v12.9h10.2C1013,320.11,1015,319.61,1016.9,318.61z"/>
				<path fill="#231815" d="M1071.3,304.21c4.4,4.5,6.6,10.3,6.6,17.4c0,7.2-2.2,13-6.6,17.6c-4.4,4.5-10.3,6.8-17.6,6.8
					s-13.2-2.3-17.6-6.8s-6.5-10.4-6.5-17.6c0-7.1,2.2-12.9,6.5-17.4c4.4-4.5,10.2-6.7,17.6-6.7S1066.9,299.71,1071.3,304.21z
					 M1063.6,333.11c2.4-3,3.7-6.8,3.7-11.5c0-4.6-1.2-8.4-3.7-11.3c-2.4-2.9-5.8-4.4-9.9-4.4c-4.2,0-7.5,1.5-9.8,4.4
					s-3.5,6.7-3.5,11.3c0,4.6,1.2,8.5,3.5,11.5s5.6,4.5,9.8,4.5S1061.2,336.11,1063.6,333.11z"/>
				<path fill="#231815" d="M1080.5,344.71v-46.2h10.4v37.9l25.3,0.1l0.1,8.3L1080.5,344.71z"/>
				<path fill="#231815" d="M1119.6,344.71v-46.2h10.3l0.1,46.3L1119.6,344.71z"/>
				<path fill="#231815" d="M1159.5,307.01v37.8h-10.4l0.1-37.9h-16v-8.2h42.2v8.3L1159.5,307.01L1159.5,307.01z"/>
				<path fill="#231815" d="M1208.2,344.71l-4.4-10h-21.4l-4.4,10h-10.7l20.1-46h11.2l20.3,46H1208.2z M1193.2,310.11l-7,16.1h13.9
					L1193.2,310.11z"/>
				<path fill="#231815" d="M1250.7,344.81l-19.5-31.4v31.4h-10.3v-46.4l11.6-0.1l19.8,31.4v-31.4h10.2v46.4L1250.7,344.81z"/>
				<path fill="#231815" d="M1334.9,304.21c4.4,4.5,6.6,10.3,6.6,17.4c0,7.2-2.2,13-6.6,17.6c-4.4,4.5-10.3,6.8-17.6,6.8
					c-7.4,0-13.2-2.3-17.6-6.8s-6.6-10.4-6.6-17.6c0-7.1,2.2-12.9,6.6-17.4s10.2-6.7,17.6-6.7
					C1324.6,297.51,1330.5,299.71,1334.9,304.21z M1327.2,333.11c2.4-3,3.7-6.8,3.7-11.5c0-4.6-1.2-8.4-3.7-11.3
					c-2.4-2.9-5.8-4.4-9.9-4.4c-4.2,0-7.5,1.5-9.8,4.4s-3.5,6.7-3.5,11.3c0,4.6,1.2,8.5,3.5,11.5s5.6,4.5,9.8,4.5
					S1324.8,336.11,1327.2,333.11z"/>
				<path fill="#231815" d="M1354.4,307.11v10.4l23.5,0.1v8.5h-23.5v18.7h-10.3v-46.1h37.1v8.4H1354.4L1354.4,307.11z"/>
				<path fill="#231815" d="M1395.6,307.11v10.4l23.4,0.1v8.5h-23.4v18.7h-10.3v-46.1h37.1v8.4H1395.6L1395.6,307.11z"/>
				<path fill="#231815" d="M1426.3,344.71v-46.2h10.3l0.1,46.3L1426.3,344.71z"/>
				<path fill="#231815" d="M1486.8,328.51c-0.9,4-3.3,7.9-7.1,11.7c-3.8,3.8-9.2,5.7-16.1,5.7c-7.4,0-13.3-2.3-17.6-6.8
					c-4.3-4.5-6.4-10.4-6.4-17.6c0-7.1,2.1-12.9,6.4-17.4s10.2-6.7,17.6-6.7c7.3,0,12.8,1.9,16.5,5.8s5.9,7.6,6.6,11.1l-11-0.1
					c-0.6-1.9-1.8-3.8-3.6-5.6c-1.8-1.8-4.5-2.8-8.1-2.8c-4.2,0-7.6,1.4-10,4.3s-3.7,6.7-3.7,11.4c0,4.7,1.2,8.6,3.7,11.5
					c2.4,3,5.8,4.4,10,4.4c3.5,0,6.2-1,8.1-3s3.3-4,4-6L1486.8,328.51z"/>
				<path fill="#231815" d="M1490.2,344.61v-46h37.2l0.1,8.4h-27v9.9l25.6,0.1v8.3h-25.6v11h27.5l0.1,8.4L1490.2,344.61z"/>
				<path fill="#231815" d="M1598.6,304.21c4.4,4.5,6.6,10.3,6.6,17.4c0,7.2-2.2,13-6.6,17.6c-4.4,4.5-10.3,6.8-17.6,6.8
					c-7.3,0-13.2-2.3-17.6-6.8s-6.5-10.4-6.5-17.6c0-7.1,2.2-12.9,6.5-17.4c4.4-4.5,10.2-6.7,17.6-6.7S1594.2,299.71,1598.6,304.21z
					 M1590.9,333.11c2.4-3,3.7-6.8,3.7-11.5c0-4.6-1.2-8.4-3.7-11.3c-2.4-2.9-5.8-4.4-10-4.4s-7.5,1.5-9.8,4.4s-3.5,6.7-3.5,11.3
					c0,4.6,1.2,8.5,3.5,11.5s5.6,4.5,9.8,4.5C1585.1,337.61,1588.5,336.11,1590.9,333.11z"/>
				<path fill="#231815" d="M1618.1,307.11v10.4l23.5,0.1v8.5h-23.5v18.7h-10.3v-46.1h37.1v8.4H1618.1L1618.1,307.11z"/>
				<path fill="#231815" d="M1677,344.61v-46h37.2l0.1,8.4h-27v9.9l25.6,0.1v8.3h-25.6v11h27.5l0.1,8.4L1677,344.61z"/>
				<path fill="#231815" d="M1755.9,305.41c4.4,4.5,6.5,9.9,6.5,16.3s-2.2,11.8-6.5,16.4c-4.4,4.6-10.2,6.8-17.4,6.8h-19.7v-46.2
					l19.7-0.1C1745.7,298.61,1751.5,300.81,1755.9,305.41z M1747.6,332.31c2.5-2.8,3.8-6.3,3.8-10.6c0-4.3-1.3-7.8-3.8-10.5
					s-6.1-4-10.6-4h-8.1v29.3h8.1C1741.6,336.41,1745.1,335.01,1747.6,332.31z"/>
				<path fill="#231815" d="M1806.5,329.81c0,4.8-1.9,8.7-5.6,11.7s-8.8,4.5-15.1,4.5c-6.4,0-11.4-1.5-15-4.5
					c-3.7-3-5.5-6.9-5.5-11.7l0.1-31.4h10.4v29.2c0,2.3,0.5,4.5,1.6,6.6s3.9,3.2,8.4,3.2c4.6,0,7.4-1.1,8.5-3.2s1.7-4.4,1.7-6.6
					l-0.1-29.2h10.6V329.81L1806.5,329.81z"/>
				<path fill="#231815" d="M1856.5,328.51c-0.9,4-3.3,7.9-7.1,11.7c-3.8,3.8-9.2,5.7-16.1,5.7c-7.4,0-13.3-2.3-17.6-6.8
					c-4.3-4.5-6.4-10.4-6.4-17.6c0-7.1,2.1-12.9,6.4-17.4s10.2-6.7,17.6-6.7c7.3,0,12.8,1.9,16.5,5.8s5.9,7.6,6.6,11.1l-10.9-0.1
					c-0.6-1.9-1.8-3.8-3.6-5.6c-1.8-1.8-4.5-2.8-8.1-2.8c-4.2,0-7.6,1.4-10,4.3s-3.7,6.7-3.7,11.4c0,4.7,1.2,8.6,3.7,11.5
					c2.4,3,5.8,4.4,10,4.4c3.5,0,6.2-1,8.1-3s3.3-4,4-6L1856.5,328.51z"/>
				<path fill="#231815" d="M1894.3,344.71l-4.4-10h-21.4l-4.4,10h-10.7l20.1-46h11.2l20.3,46H1894.3z M1879.3,310.11l-7,16.1h13.9
					L1879.3,310.11z"/>
				<path fill="#231815" d="M1923.1,307.01v37.8h-10.4l0.1-37.9h-16v-8.2h42.2v8.3L1923.1,307.01L1923.1,307.01z"/>
				<path fill="#231815" d="M1942.5,344.71v-46.2h10.3l0.1,46.3L1942.5,344.71z"/>
				<path fill="#231815" d="M1997.2,304.21c4.4,4.5,6.6,10.3,6.6,17.4c0,7.2-2.2,13-6.6,17.6c-4.4,4.5-10.3,6.8-17.6,6.8
					c-7.4,0-13.2-2.3-17.6-6.8s-6.5-10.4-6.5-17.6c0-7.1,2.2-12.9,6.5-17.4c4.4-4.5,10.2-6.7,17.6-6.7
					C1986.9,297.51,1992.8,299.71,1997.2,304.21z M1989.5,333.11c2.4-3,3.7-6.8,3.7-11.5c0-4.6-1.2-8.4-3.7-11.3
					c-2.4-2.9-5.8-4.4-9.9-4.4c-4.2,0-7.5,1.5-9.8,4.4s-3.5,6.7-3.5,11.3c0,4.6,1.2,8.5,3.5,11.5s5.6,4.5,9.8,4.5
					S1987.1,336.11,1989.5,333.11z"/>
				<path fill="#231815" d="M2036.2,344.81l-19.5-31.4v31.4h-10.3v-46.4l11.6-0.1l19.8,31.4v-31.4h10.2v46.4L2036.2,344.81z"/>
			</g>
		</g>
		<g>
			<g>
				<path fill="#231815" d="M528.1,162.21h67V32.61h27v63.3h15.3v-63.3h27v198.6h-27v-111.1h-15.3v111.1h-27v-44.9h-78.6
					c-5,0-8.7-0.9-11-2.8c-3.1-2.3-4.6-6.4-4.6-12.2V32.61h79.6v24.1h-52.4V162.21L528.1,162.21z"/>
			</g>
			<g>
				<path fill="#231815" d="M871.7,124.51v24.4h-78.6v83.4h-27v-83.4h-73.4v-24.4h143.1v-68H699.1v-23.9h163.6v91.8h9L871.7,124.51
					L871.7,124.51z"/>
			</g>
			<g>
				<path fill="#231815" d="M1036,115.41v-82.8h26.8v27.6h24.3v24.2h-24.3v54.7h-22.3c5.1,5.4,9.1,11.4,11.9,18.1
					c3,7,4.6,14.2,4.6,22c0,17.9-6,33.1-18.1,45.5c-12,12.4-26.8,18.6-44.3,18.6c-17.2,0-31.8-6.2-43.9-18.6
					c-11.9-12.6-17.9-27.7-17.9-45.5c0-7.7,1.4-15,4.2-22c2.8-6.6,6.7-12.6,11.9-18.1h-56v-23.6h26.3v-35.4h27v35.2h30.2v-58.8h-75
					v-23.9h102.2v82.7C1003.5,115.41,1036,115.41,1036,115.41z M970.4,152.51c-6.8,7.3-10.2,16.3-10.2,26.8c0,10,3.4,18.8,10.2,26.3
					c6.8,7.8,14.8,11.7,24.1,11.7c9.5,0,17.8-3.8,24.9-11.5s10.6-16.5,10.6-26.6c0-10.5-3.6-19.4-10.6-26.8
					c-7.1-7.4-15.4-11.1-24.9-11.1C985,141.41,977,145.11,970.4,152.51z"/>
			</g>
			<g>
				<path fill="#231815" d="M1192.4,39.81c10.7,10.2,16,23.2,16,39c0,15.7-5.4,28.7-16,39c-10,9.6-21.8,14.3-35.4,14.3
					c-13.8,0-25.6-4.8-35.6-14.3c-10.7-10.3-16.1-23.3-16.1-39c0-15.8,5.3-28.8,16.1-39c10-9.6,21.9-14.3,35.6-14.3
					C1170.6,25.51,1182.3,30.31,1192.4,39.81z M1139.9,58.41c-5,5.6-7.6,12.4-7.6,20.4c0,7.8,2.5,14.7,7.6,20.5
					c5,5.5,10.6,8.2,17,8.2c6.3,0,11.9-2.7,16.8-8.2c5.2-5.8,7.8-12.6,7.8-20.5c0-8-2.6-14.8-7.8-20.4c-5-5.3-10.5-8-16.8-8
					C1150.5,50.41,1144.9,53.01,1139.9,58.41z M1248.7,48.21v-15.6h27.3v96.6h-27.3v-18.8h-32.1v-23.8h32.1v-14.6h-32.1v-23.8
					H1248.7z M1276,231.31h-27.2v-57.3h-128.5v-24.4H1276V231.31z"/>
			</g>
			<g>
				<path fill="#231815" d="M1366.3,32.61c0,44.2,3.1,76.5,10.8,97c6.9,18.3,17.8,28.9,32.7,31.7v28.3c-12.8-1.7-23.9-7-33.3-15.8
					c-10.3-9.5-18.2-22.9-23.9-40.2c-5.8,16.8-14.3,30.2-25.5,40.2c-9.7,8.6-20.3,13.9-31.8,15.8v-28c14.8-3.1,25.9-13.8,33.1-31.9
					c8-20.5,11.2-52.9,11.2-97L1366.3,32.61L1366.3,32.61z M1435.9,32.61h27.2v200.6h-27.2V32.61z"/>
			</g>
			<g>
				<path fill="#231815" d="M1669.3,196.21v24.4h-176.1v-24.4h26.2v-83.6h26.8v83.6h27v-83.6h26.9v83.6h27.7V60.91h-123.9v-24.2
					h150.9v159.5H1669.3z"/>
			</g>
			<g>
				<path fill="#231815" d="M1855.1,161.01v14.3v56.1h-26.9v-46.1h-136.7v-24.4h29.5v-26.6h-36v-24.1h45.4
					c-4.7-5.1-8.3-10.7-10.6-16.7c-2.7-6.6-4-13.4-4-20.7c0-16.1,5.9-29.3,17.7-39.7c11.1-9.7,24.3-14.6,39.7-14.6
					c14.6,0,27.2,4.8,38.1,14.6c11.6,10.3,17.5,23.6,17.5,39.7c0,7.5-1.3,14.5-4,20.9c-2.5,6.3-6.1,11.8-10.8,16.4h47v24.1h-35.4
					v26.6h29.4v0.2H1855.1z M1752,51.21c-6.1,6.4-9.1,14.2-9.1,23.3c0,8.8,3,16.4,9.1,22.8c6,6.3,12.9,9.4,21,9.4
					c7.4,0,13.9-3.1,19.6-9.4c5.9-6.6,8.9-14.2,8.9-22.8c0-9.1-3-16.8-8.9-23.3c-5.7-6.1-12.2-9.2-19.6-9.2
					C1765,42.01,1758,45.11,1752,51.21z M1798.6,161.01v-26.6H1748v26.6H1798.6z"/>
			</g>
			<g>
				<path fill="#231815" d="M1945.4,112.71c-5.4-4.4-9.9-9.6-13.3-15.6c-5.9,9.9-14.6,17.5-25.8,22.8c-9,4.2-18.1,6.4-27.2,6.6
					v-25.9c13.6-1.7,23.6-6,30.2-12.9c5.4-5.8,8.5-13.6,9.4-23.3H1880v-23.8h38.3v-19h27.4v19h37.5v23.9h-37.5
					c1,9.9,3.3,17.7,8.8,23.5c6.7,6.9,16.6,11.1,29.8,12.7v19.5c14.1,1.9,26.2,8.2,36,19c10.5,11.5,15.8,25.5,15.8,42.1
					c0,18-6.1,32.9-18.3,44.7c-11.5,11-25,16.5-40.5,16.5s-28.9-5.5-40.2-16.5c-12.1-11.7-18.1-26.7-18.1-44.7
					c0-14.7,4.2-27.6,12.5-38.6c7.6-10,17.6-17,30-20.9C1955.4,119.51,1950.1,116.51,1945.4,112.71z M1955.7,155.81
					c-6.5,7-9.8,15.6-9.8,25.6c0,9.9,3.2,18.3,9.8,25.4c6.2,6.9,13.4,10.4,21.5,10.4c8.2,0,15.5-3.4,21.7-10.4
					c6.5-7,9.8-15.5,9.8-25.4c0-10-3.2-18.6-9.8-25.6c-6.2-6.6-13.5-9.9-21.7-9.9C1969.1,146.01,1961.9,149.31,1955.7,155.81z
					 M2016.5,65.51v-32.9h27.2v94.1h-27.2v-37.3h-26v-23.9H2016.5z"/>
			</g>
		</g>
	</g>
	<g>
		
			<radialGradient id="SVGID_1_" cx="-2466.2551" cy="-3181.1194" r="45.3593" gradientTransform="matrix(5.2468 0 0 5.2468 13058.2109 16807.2891)" gradientUnits="userSpaceOnUse">
			<stop  offset="0" style="stop-color:#FFFFFF"/>
			<stop  offset="0.35" style="stop-color:#009FE8"/>
			<stop  offset="0.8989" style="stop-color:#007739"/>
			<stop  offset="1" style="stop-color:#FCCF00"/>
		</radialGradient>
		<path fill="url(#SVGID_1_)" d="M332.438,166.218c0,91.798-74.417,166.219-166.22,166.219C74.418,332.437,0,258.016,0,166.218
			C0,74.42,74.418,0.002,166.218,0.002C258.021,0.002,332.438,74.42,332.438,166.218z"/>
		<path fill="#1EAA39" d="M420.599,343.435c0,8.057-47.158,14.583-105.343,14.583c-58.163,0-105.34-6.526-105.34-14.583
			c0-8.056,47.177-14.584,105.34-14.584C373.441,328.851,420.599,335.379,420.599,343.435z"/>
		<path fill="#FFFFFF" d="M263.081,83.118c-20.037-20.379-50.693-27.721-78.098-18.7l-2.784,0.918l1.769-2.344
			c10.383-19.707,38.481-32.735,60.443-23.989c0,0,9.926,3.253,12.563-4.007c2.404-6.609-8.167-10.07-8.167-10.07
			c-30.448-11.172-62.362,3.1-82.013,34.14c0,0-0.417,0.672-0.817,1.314l-0.765-1.346c-15.877-29.724-51.138-41.742-80.121-36.238
			c0,0-7.932,1.843-7.376,8.94c0.314,4.003,5.257,6.515,9.806,5.652c20.683-3.926,46.992,5.702,60.499,25.089l1.682,2.417
			l-2.757-1.03c-26.477-9.915-57.037-4.127-77.859,14.743c0,0.009-0.906,0.844-0.906,0.844c-1.645,1.531-2.577,3.569-2.616,5.739
			c-0.041,2.131,0.757,4.154,2.254,5.705c1.534,1.592,3.62,2.489,5.855,2.528c2.26,0.04,4.408-0.84,6.05-2.466
			c20.132-18.747,51.261-21.043,73.987-5.443l1.229,0.843l-1.304,0.717c-5.447,3.006-8.756,7.942-8.847,13.212
			c-0.063,3.76,1.425,7.328,4.312,10.315c3.852,3.99,9.641,6.337,15.887,6.447c6.261,0.111,12.135-2.036,16.124-5.884
			c2.985-2.882,4.602-6.393,4.665-10.151c0.083-5.342-3.106-10.418-8.527-13.581l-1.311-0.76l1.284-0.808
			c23.485-14.83,54.605-11.263,74.006,8.484c1.533,1.583,3.602,2.48,5.824,2.517c2.218,0.042,4.32-0.777,5.915-2.313
			c1.553-1.496,2.42-3.49,2.461-5.619C265.462,86.764,264.631,84.7,263.081,83.118z"/>
		<path fill="#C3D600" d="M324.234,212.41c-2.579-25.772-18.432-48.064-41.069-59.409c6.124-25.073,0.348-50.884-20.079-70.129
			c-3.186-3.003-7.976-5.787-12.42-2.524c-3.771,2.765-4.085,7.253-2.014,11.047c0.523,0.952,1.636,1.689,2.346,2.519
			c6.421,7.525,10.917,13.827,13.741,23.486c2.951,10.073,4.063,21.058,0.834,31.427c-1.87-7.709-8.74-13.152-16.771-12.363
			c-9.731,0.95-17.712,10.127-17.868,20.503c-0.15,10.392,7.613,18.022,17.305,17.084c1.622-0.169,3.189-0.566,4.677-1.146
			c-0.392,0.427-0.723,0.883-1.118,1.307c-21.625,22.89-59.066,24.28-82.016,2.729c-1.61-1.443-3.721-2.356-6.05-2.356
			c-4.99,0-9.047,4.043-9.047,9.022c0,2.519,1.045,4.797,2.724,6.446c28.858,27.124,74.857,26.631,103.591,0.286
			c7.795,6.271,14.027,14.642,17.695,24.693c10.71,29.308-4.226,61.669-33.412,72.68c0.014,0.036,0.038,0.071,0.05,0.101
			c-3.871,1.496-6.32,5.498-5.665,9.758c0.735,4.925,5.335,8.3,10.277,7.558c0.539-0.07,1.06-0.224,1.579-0.36
			c38.607-14.433,58.423-57.229,44.292-95.948c-4.798-13.109-12.911-24.022-23.019-32.258c1.445-2.146,2.742-4.321,3.918-6.565
			c16.52,8.969,27.972,25.74,29.652,45.016c0.017,0.129,0.017,0.246,0.036,0.37c1.132,4.859,5.957,7.888,10.834,6.777
			c4.5-1.032,7.408-5.26,6.923-9.752C324.186,212.41,324.217,212.41,324.234,212.41z"/>
		<g>
			<path fill="#002E7E" d="M69.184,78.528c0.289-0.262,0.591-0.52,0.886-0.777C69.768,78.007,69.476,78.267,69.184,78.528z"/>
			<path fill="#002E7E" d="M82.27,88.721c0.043-0.036,0.088-0.072,0.136-0.108C82.358,88.649,82.313,88.685,82.27,88.721z"/>
			<path fill="#003280" d="M163.758,174.348c-2.206,0-5.175,1.528-6.368,2.554c-20.604,17.73-50.171,17.843-71.019,2.272
				c10.592,2.888,20.002-2.726,21.136-12.754c1.147-10.166-6.654-20.986-17.441-24.182c-10.767-3.185-20.446,2.468-21.594,12.63
				c-0.074,0.63-0.105,1.265-0.105,1.896c-9.907-21.899-4.02-51.86,12.858-67.125c-0.505,0.438-1.018,0.866-1.502,1.318
				c-1.642,1.626-3.79,2.506-6.05,2.466c-2.235-0.039-4.322-0.936-5.855-2.528c-1.497-1.551-2.295-3.575-2.254-5.705
				c0.038-2.17,0.97-4.208,2.616-5.739c0,0,0.41-0.378,0.683-0.628c-22.974,20.716-30.563,59.453-15.518,88.856
				c-0.184,0-0.356-0.039-0.539-0.051c-17.71-0.715-34.823,16.841-43.742,40.036c-0.128,0.275-0.239,0.575-0.35,0.869
				c-0.029,0.073-0.051,0.15-0.099,0.216c0.021,0,0.021,0,0.036,0c-0.285,0.891-0.496,1.819-0.496,2.802
				c0,5.032,4.073,9.114,9.073,9.114c4.358,0,7.976-3.093,8.865-7.229c5.673-16.809,15.387-27.879,25.982-27.456
				c15.892,0.635,27.787,26.9,26.522,58.657c-0.012,0.424-0.041,0.838-0.065,1.257h0.024c-1.157,41.077,18.141,74.978,43.546,76.256
				c0-0.016,0.034-0.028,0.034-0.041c0.117,0.007,0.247,0.041,0.388,0.041c5.008,0,9.068-4.097,9.068-9.166
				c0-4.958-3.898-8.964-8.765-9.145c0.017-0.011,0.017-0.021,0.017-0.041c-15.553-0.939-27.149-26.38-26.26-57.363
				c-0.003-0.011-0.003-0.011-0.003-0.011c0.003-0.353,0.025-0.7,0.05-1.065c0.605-15.769-1.782-30.525-6.387-42.886
				c25.53,11.203,56.246,7.763,78.935-11.543c0.185-0.161,0.355-0.333,0.532-0.484v-0.012c1.922-1.691,3.187-4.144,3.187-6.917
				C172.899,178.45,168.811,174.348,163.758,174.348z"/>
		</g>
	</g>
</g>
</svg>
