<svg xmlns="http://www.w3.org/2000/svg" width="496" height="122" viewBox="0 0 248 61"><path fill="#fff" d="M60.379 30.505c0 16.581-13.45 30.031-30.038 30.031-16.584 0-30.033-13.45-30.033-30.031C.308 13.912 13.757.464 30.341.464c16.588 0 30.038 13.448 30.038 30.041"/><path fill="#003764" d="M44.528 28.409c-4.776-3.25-10.895-1.928-14.111 2.957-2.677 4.08-6.727 4.589-8.284 4.589-5.116 0-8.61-3.596-9.646-7.317h-.002c-.015-.042-.022-.072-.03-.106-.01-.044-.019-.082-.033-.123-.408-1.557-.511-2.293-.511-3.944 0-8.89 9.128-18.794 22.264-18.794 13.459 0 21.159 10.243 23.147 15.94-.039-.111-.07-.203-.103-.302C53.404 10.171 42.841 2.166 30.405 2.166 14.761 2.166 2.074 14.847 2.074 30.5c0 13.991 10.089 25.964 24.089 25.964 11.157 0 18.66-6.259 22.097-14.886 1.888-4.719.554-10.261-3.732-13.169"/><path fill="#e4032e" d="M57.497 22.162C55.837 16.607 48.083 5.67 34.175 5.67c-13.136 0-22.263 9.905-22.263 18.795 0 1.65.102 2.386.51 3.944-.169-.683-.259-1.361-.259-2.021 0-9.264 9.271-15.677 18.804-15.677 12.906 0 23.363 10.458 23.363 23.358 0 10.114-5.821 18.871-14.27 23.074v.01c10.896-3.951 18.684-14.39 18.684-26.653 0-2.903-.393-5.46-1.247-8.338"/><path fill="#575757" d="M77.887 21.275h8.389V18.16H74.359v22.695h12.267V37.77h-8.739Z"/><path fill="#575757" d="M95.844 28.077h-3.783V16.411h-3.303v28.193h3.303V31.095h3.783v13.668h3.369V16.411h-3.369Z"/><path fill="#575757" d="M108.447 35.577h-3.526v8.614h22.851v-3.084h-19.325Z"/><path fill="#575757" d="M127.167 16.412h-3.528v18.147h3.528v-7.34h4.069v-3.083h-4.069Z"/><path fill="#575757" d="M120.777 18.541h-6.703v-2.703h-3.754v2.703h-6.672v3.02h17.129Z"/><path fill="#575757" d="M114.454 30.571c-.614.604-1.355.906-2.224.906-.871 0-1.609-.302-2.224-.906s-.923-1.34-.923-2.209.308-1.615.923-2.24c.615-.627 1.353-.937 2.224-.937.869 0 1.61.31 2.224.937.614.625.922 1.371.922 2.24s-.308 1.605-.922 2.209m.304-7.819c-.795-.327-1.651-.492-2.559-.492-.912 0-1.766.165-2.56.492-.795.329-1.488.767-2.083 1.319q-.888.8265-1.413 1.938c-.348.743-.522 1.539-.522 2.385 0 .847.174 1.631.522 2.351.35.723.821 1.367 1.413 1.94.595.551 1.288.985 2.083 1.302.794.319 1.648.478 2.56.478.908 0 1.764-.159 2.559-.478.795-.317 1.498-.751 2.114-1.302.573-.573 1.033-1.217 1.379-1.94.352-.72.529-1.504.529-2.351 0-.846-.177-1.642-.529-2.385-.346-.741-.806-1.387-1.379-1.938-.616-.552-1.319-.99-2.114-1.319"/><path fill="#575757" d="M146.047 28.775h-7.629v-8.326h7.629zm3.463-11.379h-14.588v14.397h14.588z"/><path fill="#575757" d="M158.729 16.412h-3.528v18.147h3.528z"/><path fill="#575757" d="M139.246 34.721h-3.497v9.471h23.234v-3.115h-19.737Z"/><path fill="#575757" d="M183.607 25.438h3.526v-8.455h-21.866V20.1h18.34Z"/><path fill="#575757" d="M163.169 30.778h11.285v4.164h-9.506v3.082h18.659v6.802h3.526v-9.884h-9.183v-4.164h11.28v-3.083h-26.061Z"/><path fill="#575757" d="M214.181 22.038h-5.275v3.02h5.275v6.388h3.529V16.413h-3.529Z"/><path fill="#575757" d="M210.671 41.44c-.775.753-1.701 1.129-2.783 1.129-1.059 0-1.969-.376-2.732-1.129-.761-.751-1.145-1.669-1.145-2.748 0-1.059.384-1.97 1.145-2.732.763-.765 1.673-1.146 2.732-1.146 1.082 0 2.008.381 2.783 1.146.771.762 1.159 1.673 1.159 2.732 0 1.079-.388 1.997-1.159 2.748m2.461-7.611c-.656-.637-1.436-1.139-2.334-1.511-.902-.37-1.86-.556-2.877-.556-.996 0-1.95.186-2.858.556-.913.372-1.699.874-2.355 1.511-.657.636-1.181 1.374-1.571 2.209-.394.835-.589 1.731-.589 2.684 0 .955.195 1.849.589 2.687.39.837.914 1.573 1.571 2.208.656.637 1.442 1.139 2.355 1.511.908.371 1.862.557 2.858.557 1.017 0 1.975-.186 2.877-.557.898-.372 1.678-.874 2.334-1.511.658-.635 1.185-1.371 1.574-2.208.392-.838.586-1.732.586-2.687 0-.953-.194-1.849-.586-2.684-.389-.835-.916-1.573-1.574-2.209"/><path fill="#575757" d="m206.871 30.874 2.45-2.035-7.187-8.803h6.897v-3.053h-16.208v3.053h7.104l-7.201 9.279 2.545 2.035 5.752-7.724z"/><path fill="#575757" d="M221.63 34.318v3.114h11.252v7.311h3.53v-7.311h11.28v-3.114Z"/><path fill="#575757" d="M227.195 23.512h14.9v3.91h-14.9zm18.399-6.642h-3.499v3.591h-14.9V16.87h-3.468v13.633h21.867z"/></svg>