<svg xmlns="http://www.w3.org/2000/svg" xmlns:xlink="http://www.w3.org/1999/xlink" xmlns:inkscape="http://www.inkscape.org/namespaces/inkscape" version="1.1" width="422.8" height="107.099979" viewBox="0 0 422.8 107.099979">
<defs>
<clipPath id="clip_1">
<path transform="matrix(1,0,0,-1,-80.2,732.68899)" d="M80.2 625.589H503V732.68899H80.2Z" clip-rule="evenodd"/>
</clipPath>
<clipPath id="clip_2">
<path transform="matrix(1,0,0,-1,-80.2,732.68899)" d="M0 841.889H595.275V0H0Z"/>
</clipPath>
</defs>
<g clip-path="url(#clip_1)">
<g inkscape:groupmode="layer" inkscape:label="Layer 1">
<path transform="matrix(1,0,0,-1,-80.2,732.68899)" d="M0 0H595.275V510.236H0Z" fill="#2c292a"/>
<g clip-path="url(#clip_2)">
<path transform="matrix(1,0,0,-1,80.547107,51.291444)" d="M0 0C-8.622 5.855-19.651 3.467-25.44-5.339-30.28-12.694-37.579-13.609-40.41-13.609-49.622-13.609-55.933-7.127-57.801-.419H-57.808C-57.818-.352-57.836-.296-57.854-.23-57.875-.158-57.896-.083-57.914-.004-58.649 2.793-58.829 4.131-58.829 7.105-58.829 23.146-42.369 41.004-18.666 41.004 5.606 41.004 19.493 22.527 23.062 12.258 23.006 12.438 22.95 12.616 22.886 12.803 16.003 32.888-3.048 47.331-25.469 47.331-53.696 47.331-76.578 24.452-76.578-3.778-76.578-29.008-58.378-50.607-33.138-50.607-13.007-50.607 .524-39.318 6.732-23.763 10.143-15.253 7.722-5.255 0 0" fill="#083f67"/>
<path transform="matrix(1,0,0,-1,103.9328,40.029787)" d="M0 0C-2.984 10.02-16.974 29.742-42.052 29.742-65.755 29.742-82.215 11.885-82.215-4.156-82.215-7.131-82.035-8.469-81.3-11.266-81.609-10.043-81.768-8.816-81.768-7.619-81.768 9.085-65.044 20.662-47.849 20.662-24.575 20.662-5.708 1.791-5.708-21.479-5.708-39.725-16.208-55.514-31.463-63.102L-31.459-63.112C-11.793-55.992 2.249-37.157 2.249-15.04 2.249-9.805 1.545-5.191 0 0" fill="#ee2540"/>
<path transform="matrix(1,0,0,-1,142.5471,89.24756)" d="M0 0-6.106 13.189V0H-8.801V16.184H-4.807L1.3 2.949V16.184H3.994V0Z" fill="#5b5c5e"/>
<path transform="matrix(1,0,0,-1,153.965,87.436038)" d="M0 0C.682 0 1.355 .166 2.021 .499 2.687 .832 3.167 1.215 3.46 1.648V3.622H1.115C-.216 3.622-1.146 3.452-1.671 3.112-2.182 2.725-2.438 2.261-2.438 1.719-2.438 1.223-2.222 .812-1.788 .487-1.354 .163-.758 0 0 0M.72 5.689H3.46C3.46 6.447 3.167 7.016 2.578 7.396 1.989 7.774 1.139 7.965 .023 7.965H-.046C-1.099 7.965-2.214 7.717-3.39 7.221L-4.062 9.288C-2.84 9.813-1.493 10.084-.022 10.101H.023C1.975 10.101 3.472 9.725 4.517 8.974 5.562 8.224 6.084 7.027 6.084 5.388V-1.812H3.576V-.534C3.081-1.03 2.474-1.413 1.754-1.684 1.034-1.955 .302-2.09-.44-2.09-1.834-2.09-2.96-1.723-3.818-.987-4.678-.252-5.108 .649-5.108 1.719-5.108 2.91-4.573 3.893-3.505 4.667-2.515 5.348-1.106 5.689 .72 5.689" fill="#5b5c5e"/>
<path transform="matrix(1,0,0,-1,166.5012,73.87549)" d="M0 0V-3.738H2.529V-5.876H0V-11.796C0-12.354 .135-12.736 .405-12.944 .677-13.154 1.06-13.259 1.556-13.259H2.529V-15.372H.928C-.326-15.372-1.239-15.093-1.812-14.535-2.385-13.979-2.671-13.151-2.671-12.052V-5.876H-4.668V-3.738H-2.671V0Z" fill="#5b5c5e"/>
<path transform="matrix(1,0,0,-1,-80.2,732.68899)" d="M251.503 655.075H254.15001V643.44107H251.503ZM254.498 658.697C254.498 658.264 254.331 657.881 253.999 657.547 253.666 657.215 253.267 657.048 252.803 657.048 252.339 657.048 251.939 657.215 251.607 657.547 251.274 657.881 251.107 658.264 251.107 658.697 251.107 659.161 251.274 659.561 251.607 659.893 251.939 660.226 252.339 660.392 252.803 660.392 253.267 660.392 253.666 660.226 253.999 659.893 254.331 659.561 254.498 659.161 254.498 658.697" fill="#5b5c5e"/>
<path transform="matrix(1,0,0,-1,182.5129,87.34326)" d="M0 0C.959 0 1.784 .367 2.473 1.104 3.162 1.838 3.506 2.771 3.506 3.901 3.506 5.016 3.162 5.947 2.473 6.699 1.784 7.449 .959 7.825 0 7.825-.944 7.825-1.761 7.449-2.45 6.699-3.139 5.947-3.482 5.016-3.482 3.901-3.482 2.771-3.139 1.838-2.45 1.104-1.761 .367-.944 0 0 0M0-2.183C-1.703-2.183-3.154-1.598-4.354-.43-5.553 .739-6.153 2.183-6.153 3.901-6.153 5.619-5.553 7.066-4.354 8.243-3.154 9.419-1.703 10.008 0 10.008 1.718 10.008 3.173 9.419 4.365 8.243 5.558 7.066 6.153 5.619 6.153 3.901 6.153 2.183 5.558 .739 4.365-.43 3.173-1.598 1.718-2.183 0-2.183" fill="#5b5c5e"/>
<path transform="matrix(1,0,0,-1,193.56072,83.395938)" d="M0 0V-5.852H-2.624V5.782H-.093V4.227C.218 4.768 .665 5.209 1.253 5.55 1.843 5.89 2.477 6.061 3.158 6.061 4.536 6.061 5.639 5.592 6.467 4.655 7.294 3.719 7.709 2.469 7.709 .905V-5.852H5.062V.232C5.062 1.47 4.86 2.388 4.458 2.984 4.056 3.58 3.437 3.878 2.601 3.878 2.167 3.878 1.746 3.734 1.336 3.448 .925 3.162 .611 2.771 .396 2.275 .132 1.703 0 .944 0 0" fill="#5b5c5e"/>
<path transform="matrix(1,0,0,-1,208.6252,87.436038)" d="M0 0C.682 0 1.354 .166 2.021 .499 2.687 .832 3.166 1.215 3.46 1.648V3.622H1.115C-.216 3.622-1.146 3.452-1.672 3.112-2.182 2.725-2.438 2.261-2.438 1.719-2.438 1.223-2.222 .812-1.788 .487-1.354 .163-.758 0 0 0M.72 5.689H3.46C3.46 6.447 3.166 7.016 2.578 7.396 1.989 7.774 1.139 7.965 .023 7.965H-.046C-1.099 7.965-2.214 7.717-3.39 7.221L-4.063 9.288C-2.84 9.813-1.493 10.084-.022 10.101H.023C1.975 10.101 3.472 9.725 4.517 8.974 5.562 8.224 6.083 7.027 6.083 5.388V-1.812H3.576V-.534C3.081-1.03 2.474-1.413 1.754-1.684 1.034-1.955 .302-2.09-.44-2.09-1.834-2.09-2.96-1.723-3.818-.987-4.678-.252-5.108 .649-5.108 1.719-5.108 2.91-4.573 3.893-3.505 4.667-2.516 5.348-1.106 5.689 .72 5.689" fill="#5b5c5e"/>
<path transform="matrix(1,0,0,-1,-80.2,732.68899)" d="M297.969 660.693H300.593V643.441H297.969Z" fill="#5b5c5e"/>
<path transform="matrix(1,0,0,-1,246.7141,73.063968)" d="M0 0V-16.184H-2.6V-3.157L-6.826-16.184H-9.333L-13.56-3.157V-16.184H-16.16V0H-12.166L-8.079-12.607-3.992 0Z" fill="#5b5c5e"/>
<path transform="matrix(1,0,0,-1,257.5539,83.46625)" d="M0 0V5.853H2.646V-5.781H.116V-4.248C-.209-4.821-.643-5.256-1.184-5.548-1.819-5.89-2.477-6.06-3.157-6.06-4.521-6.06-5.615-5.596-6.443-4.666-7.271-3.738-7.686-2.483-7.686-.905V5.853H-5.062V-.255C-5.062-1.478-4.857-2.388-4.446-2.983-4.036-3.579-3.413-3.877-2.577-3.877-2.159-3.877-1.741-3.733-1.323-3.447-.906-3.161-.588-2.778-.372-2.299-.124-1.726 0-.959 0 0" fill="#5b5c5e"/>
<path transform="matrix(1,0,0,-1,262.1936,87.08838)" d="M0 0 1.647 1.695C2.113 1.062 2.623 .565 3.181 .21 3.723-.116 4.303-.278 4.923-.278 5.511-.278 6.009-.159 6.419 .082 6.829 .322 7.035 .644 7.035 1.045 7.035 1.447 6.837 1.762 6.443 1.985 6.049 2.21 5.58 2.423 5.038 2.624 4.403 2.825 3.753 3.05 3.087 3.298 2.189 3.622 1.532 4.04 1.114 4.552 .696 5.062 .487 5.644 .487 6.293 .487 7.253 .937 8.069 1.834 8.743 2.731 9.416 3.792 9.753 5.015 9.753 6.315 9.753 7.376 9.442 8.196 8.824 8.613 8.499 8.947 8.097 9.194 7.617L7.569 6.038C7.353 6.409 7.097 6.711 6.804 6.943 6.292 7.392 5.65 7.617 4.876 7.617 4.427 7.617 4.036 7.504 3.704 7.28 3.37 7.055 3.203 6.788 3.203 6.479 3.203 6.138 3.39 5.852 3.761 5.62 4.133 5.388 4.683 5.162 5.41 4.946 5.673 4.868 5.975 4.776 6.315 4.668 7.445 4.296 8.301 3.816 8.881 3.229 9.462 2.64 9.751 1.936 9.751 1.115 9.751 .155 9.287-.677 8.359-1.381 7.43-2.086 6.246-2.438 4.807-2.438 3.599-2.438 2.531-2.159 1.602-1.602 .982-1.229 .448-.696 0 0" fill="#5b5c5e"/>
<path transform="matrix(1,0,0,-1,275.9348,82.51416)" d="M0 0H6.455C6.424 .76 6.107 1.452 5.504 2.078 4.899 2.706 4.133 3.019 3.204 3.019 2.244 3.019 1.455 2.679 .836 1.997 .387 1.487 .107 .821 0 0M.046-2.089C.201-2.802 .533-3.382 1.045-3.831 1.789-4.513 2.771-4.853 3.994-4.853 5.278-4.853 6.478-4.381 7.593-3.436L8.383-5.387C7.129-6.47 5.642-7.012 3.924-7.012 1.959-7.012 .36-6.454-.871-5.34-2.101-4.225-2.717-2.763-2.717-.952-2.717 .828-2.171 2.296-1.079 3.449 .012 4.602 1.439 5.179 3.204 5.179 4.937 5.179 6.358 4.606 7.466 3.46 8.572 2.315 9.125 .897 9.125-.788 9.125-1.254 9.086-1.687 9.009-2.089Z" fill="#5b5c5e"/>
<path transform="matrix(1,0,0,-1,294.9934,83.46625)" d="M0 0V5.853H2.646V-5.781H.116V-4.248C-.209-4.821-.643-5.256-1.184-5.548-1.819-5.89-2.477-6.06-3.157-6.06-4.521-6.06-5.615-5.596-6.443-4.666-7.271-3.738-7.686-2.483-7.686-.905V5.853H-5.062V-.255C-5.062-1.478-4.857-2.388-4.446-2.983-4.036-3.579-3.413-3.877-2.577-3.877-2.159-3.877-1.741-3.733-1.323-3.447-.906-3.161-.588-2.778-.372-2.299-.124-1.726 0-.959 0 0" fill="#5b5c5e"/>
<path transform="matrix(1,0,0,-1,313.05293,77.33545)" d="M0 0C1.363 0 2.423-.469 3.181-1.405 3.94-2.342 4.319-3.592 4.319-5.155V-11.912H1.719V-5.828C1.719-4.591 1.552-3.673 1.22-3.076 .887-2.48 .341-2.183-.418-2.183-.866-2.183-1.257-2.311-1.591-2.566-1.923-2.821-2.189-3.197-2.392-3.691-2.607-4.203-2.716-4.915-2.716-5.828V-11.912H-5.316V-5.828C-5.316-4.591-5.486-3.673-5.828-3.076-6.168-2.48-6.71-2.183-7.453-2.183-7.901-2.183-8.284-2.311-8.603-2.566-8.92-2.821-9.187-3.197-9.403-3.691-9.636-4.265-9.751-5.023-9.751-5.967V-5.944-11.912H-12.353V-.278H-9.891V-1.834C-9.241-.612-8.235 0-6.872 0-5.418 0-4.349-.704-3.669-2.113-3.266-1.416-2.782-.891-2.217-.534-1.652-.179-.913 0 0 0" fill="#5b5c5e"/>
<path transform="matrix(1,0,0,-1,332.45533,87.34326)" d="M0 0C.96 0 1.784 .367 2.473 1.104 3.162 1.838 3.507 2.771 3.507 3.901 3.507 5.016 3.162 5.947 2.473 6.699 1.784 7.449 .96 7.825 0 7.825-.944 7.825-1.761 7.449-2.45 6.699-3.138 5.947-3.483 5.016-3.483 3.901-3.483 2.771-3.138 1.838-2.45 1.104-1.761 .367-.944 0 0 0M0-2.183C-1.703-2.183-3.153-1.598-4.354-.43-5.554 .739-6.153 2.183-6.153 3.901-6.153 5.619-5.554 7.066-4.354 8.243-3.153 9.419-1.703 10.008 0 10.008 1.718 10.008 3.173 9.419 4.365 8.243 5.558 7.066 6.153 5.619 6.153 3.901 6.153 2.183 5.558 .739 4.365-.43 3.173-1.598 1.718-2.183 0-2.183" fill="#5b5c5e"/>
<path transform="matrix(1,0,0,-1,341.48359,75.29248)" d="M0 0C0 1.1 .305 1.927 .917 2.484 1.528 3.042 2.461 3.32 3.715 3.32H4.992V1.207H4.227C3.73 1.207 3.348 1.103 3.076 .895 2.806 .685 2.671 .302 2.671-.256V-2.321H4.992V-4.459H2.671V-13.955H0V-4.459H-1.997V-2.321H0Z" fill="#5b5c5e"/>
<path transform="matrix(1,0,0,-1,358.3557,80.58649)" d="M0 0 6.733 7.522H10.007L2.786-.511 9.983-8.661H6.616L0-1.138V-8.661H-2.694V7.522H0Z" fill="#5b5c5e"/>
<path transform="matrix(1,0,0,-1,374.2326,87.34326)" d="M0 0C.96 0 1.784 .367 2.473 1.104 3.162 1.838 3.507 2.771 3.507 3.901 3.507 5.016 3.162 5.947 2.473 6.699 1.784 7.449 .96 7.825 0 7.825-.944 7.825-1.761 7.449-2.45 6.699-3.138 5.947-3.483 5.016-3.483 3.901-3.483 2.771-3.138 1.838-2.45 1.104-1.761 .367-.944 0 0 0M0-2.183C-1.703-2.183-3.154-1.598-4.354-.43-5.554 .739-6.153 2.183-6.153 3.901-6.153 5.619-5.554 7.066-4.354 8.243-3.154 9.419-1.703 10.008 0 10.008 1.718 10.008 3.173 9.419 4.364 8.243 5.558 7.066 6.153 5.619 6.153 3.901 6.153 2.183 5.558 .739 4.364-.43 3.173-1.598 1.718-2.183 0-2.183" fill="#5b5c5e"/>
<path transform="matrix(1,0,0,-1,382.6574,89.24756)" d="M0 0V11.634H2.484V9.892C2.871 10.464 3.343 10.906 3.9 11.216 4.566 11.617 5.348 11.819 6.245 11.819H6.432V9.45H6.153C5.054 9.45 4.179 9.118 3.528 8.452 2.925 7.803 2.623 6.787 2.623 5.41V0Z" fill="#5b5c5e"/>
<path transform="matrix(1,0,0,-1,392.63594,82.51416)" d="M0 0H6.455C6.424 .76 6.107 1.452 5.504 2.078 4.899 2.706 4.133 3.019 3.204 3.019 2.245 3.019 1.455 2.679 .836 1.997 .387 1.487 .107 .821 0 0M.046-2.089C.201-2.802 .533-3.382 1.045-3.831 1.789-4.513 2.771-4.853 3.994-4.853 5.278-4.853 6.478-4.381 7.593-3.436L8.383-5.387C7.129-6.47 5.643-7.012 3.924-7.012 1.959-7.012 .36-6.454-.871-5.34-2.101-4.225-2.717-2.763-2.717-.952-2.717 .828-2.171 2.296-1.079 3.449 .012 4.602 1.439 5.179 3.204 5.179 4.937 5.179 6.358 4.606 7.466 3.46 8.572 2.315 9.125 .897 9.125-.788 9.125-1.254 9.087-1.687 9.009-2.089Z" fill="#5b5c5e"/>
<path transform="matrix(1,0,0,-1,408.3039,87.436038)" d="M0 0C.682 0 1.355 .166 2.021 .499 2.687 .832 3.166 1.215 3.461 1.648V3.622H1.115C-.216 3.622-1.146 3.452-1.672 3.112-2.182 2.725-2.438 2.261-2.438 1.719-2.438 1.223-2.221 .812-1.787 .487-1.354 .163-.758 0 0 0M.72 5.689H3.461C3.461 6.447 3.166 7.016 2.578 7.396 1.989 7.774 1.139 7.965 .023 7.965H-.046C-1.098 7.965-2.213 7.717-3.389 7.221L-4.062 9.288C-2.84 9.813-1.493 10.084-.022 10.101H.023C1.975 10.101 3.472 9.725 4.518 8.974 5.562 8.224 6.084 7.027 6.084 5.388V-1.812H3.576V-.534C3.081-1.03 2.474-1.413 1.754-1.684 1.034-1.955 .302-2.09-.44-2.09-1.834-2.09-2.96-1.723-3.818-.987-4.678-.252-5.108 .649-5.108 1.719-5.108 2.91-4.573 3.893-3.505 4.667-2.516 5.348-1.105 5.689 .72 5.689" fill="#5b5c5e"/>
<path transform="matrix(1,0,0,-1,165.1516,21.126465)" d="M0 0V-11.814H-4.93V-4.353H-30.557V0ZM-17.676-25.094V-19.32H-33.398V-14.968H3.021V-19.32H-12.746V-25.094H.09V-38.906H-4.84V-29.402H-30.912V-25.094Z" fill="#5b5c5e"/>
<path transform="matrix(1,0,0,-1,-80.2,732.68899)" d="M283.236 712.361H288.166V690.24307H283.236ZM283.326 681.627H261.96299V677.63H283.326ZM257.121 688.911H261.963V685.625H283.326V688.911H288.166V673.544H257.121ZM276.264 690.999H254.9V703.079H270.934V707.032H254.9V711.207H275.82V699.082H259.787V695.085H276.264Z" fill="#5b5c5e"/>
<path transform="matrix(1,0,0,-1,238.03441,52.526857)" d="M0 0C0 1.361-.51 2.538-1.531 3.53-2.553 4.522-3.746 5.019-5.107 5.019-6.469 5.019-7.66 4.522-8.682 3.53-9.703 2.538-10.215 1.361-10.215 0-10.215-1.362-9.703-2.54-8.682-3.531-7.66-4.523-6.469-5.02-5.107-5.02-3.746-5.02-2.553-4.523-1.531-3.531-.51-2.54 0-1.362 0 0M10.527 27.536H-2.842L11.281 20.074 9.018 16.433-5.107 23.938-19.275 16.433-21.496 20.074-7.371 27.536H-20.74V31.711H10.527ZM-7.594 8.927V11.325H-23.316V15.544H13.104V11.325H-2.664V8.927C-2.16 8.808-1.687 8.66-1.242 8.482-.029 7.979 1.021 7.312 1.91 6.484 2.799 5.654 3.51 4.686 4.043 3.575 4.576 2.465 4.842 1.272 4.842 0 4.842-1.273 4.576-2.466 4.043-3.576 3.51-4.687 2.799-5.655 1.91-6.484 1.021-7.313-.029-7.973-1.242-8.461-2.457-8.95-3.746-9.194-5.107-9.194-6.469-9.194-7.758-8.95-8.971-8.461-10.186-7.973-11.236-7.313-12.125-6.484-13.012-5.655-13.723-4.687-14.256-3.576-14.789-2.466-15.055-1.273-15.055 0-15.055 1.272-14.789 2.465-14.256 3.575-13.723 4.686-13.012 5.654-12.125 6.484-11.236 7.312-10.186 7.979-8.971 8.482-8.527 8.66-8.068 8.808-7.594 8.927" fill="#5b5c5e"/>
<path transform="matrix(1,0,0,-1,288.3117,41.33545)" d="M0 0H-4.887V21.008H0V13.059H5.686V8.173H0ZM-6.574-9.904C-6.574-8.364-7.137-7.032-8.262-5.906-9.387-4.781-10.734-4.219-12.303-4.219-13.873-4.219-15.213-4.781-16.322-5.906-17.434-7.032-17.988-8.364-17.988-9.904-17.988-11.474-17.434-12.806-16.322-13.901-15.213-14.996-13.873-15.544-12.303-15.544-10.734-15.544-9.387-14.996-8.262-13.901-7.137-12.806-6.574-11.474-6.574-9.904M-1.777-9.948C-1.777-11.311-2.059-12.591-2.621-13.79-3.184-14.989-3.924-16.033-4.842-16.921-5.818-17.839-6.936-18.564-8.195-19.098-9.453-19.631-10.809-19.896-12.258-19.896-13.709-19.896-15.072-19.631-16.344-19.098-17.617-18.564-18.742-17.839-19.721-16.921-20.668-16.033-21.424-14.989-21.984-13.79-22.549-12.591-22.828-11.311-22.828-9.948-22.828-8.587-22.549-7.299-21.984-6.084-21.424-4.87-20.668-3.834-19.721-2.976-18.742-2.058-17.617-1.332-16.344-.799-15.072-.266-13.709 0-12.258 0-10.809 0-9.453-.266-8.195-.799-6.936-1.332-5.818-2.058-4.842-2.976-3.924-3.834-3.184-4.87-2.621-6.084-2.059-7.299-1.777-8.587-1.777-9.948M-15.945 10.615C-15.945 12.243-16.521 13.636-17.678 14.79-18.832 15.945-20.225 16.522-21.852 16.522-23.51 16.522-24.902 15.945-26.027 14.79-27.152 13.636-27.715 12.243-27.715 10.615-27.715 8.957-27.152 7.558-26.027 6.418-24.902 5.278-23.51 4.708-21.852 4.708-20.225 4.708-18.832 5.278-17.678 6.418-16.521 7.558-15.945 8.957-15.945 10.615M-11.193 10.66C-11.193 9.238-11.48 7.921-12.059 6.707-12.637 5.492-13.398 4.427-14.346 3.509-15.322 2.591-16.455 1.866-17.744 1.333-19.031 .8-20.402 .533-21.852 .533-23.303 .533-24.672 .8-25.961 1.333-27.248 1.866-28.381 2.591-29.357 3.509-30.334 4.427-31.111 5.492-31.689 6.707-32.268 7.921-32.555 9.238-32.555 10.66-32.555 12.051-32.268 13.361-31.689 14.591-31.111 15.818-30.334 16.878-29.357 17.766-28.381 18.684-27.248 19.409-25.961 19.942-24.672 20.476-23.303 20.742-21.852 20.742-20.402 20.742-19.031 20.476-17.744 19.942-16.455 19.409-15.322 18.684-14.346 17.766-13.398 16.878-12.637 15.818-12.059 14.591-11.48 13.361-11.193 12.051-11.193 10.66" fill="#5b5c5e"/>
<path transform="matrix(1,0,0,-1,329.79414,42.578554)" d="M0 0H-4.887V22.251H0V13.946H5.686V9.061H0ZM-16.123 11.681H-27.049V5.5519998H-16.123ZM-31.18-2.354H0V-17.011H-4.887V-6.706H-31.18ZM-31.934 21.407H-27.049V15.944H-16.123V21.407H-11.326V1.421H-31.934Z" fill="#5b5c5e"/>
<path transform="matrix(1,0,0,-1,-80.2,732.68899)" d="M447.967 707.876H427.13703V703.25698H447.967ZM422.297 711.873H452.854V699.30398H422.297ZM435.088 689.889V692.642H419.365V696.684H455.785V692.642H440.018V689.889H452.854V679.851H427.137V677.452H453.387V673.411H422.297V683.715H447.967V685.979H422.297V689.889Z" fill="#5b5c5e"/>
<path transform="matrix(1,0,0,-1,413.6906,46.353944)" d="M0 0H-4.93V26.026H0V15.367H5.064V10.882H0ZM-30.867-12.924V-1.021H-25.937V-8.571H.711V-12.924ZM-15.012 10.394V20.919H-31.889V25.228H-10.17V10.394ZM-7.949 6.618V2.31H-33.664V6.618H-25.627V15.456H-20.74V6.618Z" fill="#5b5c5e"/>
<path transform="matrix(1,0,0,-1,142.5471,410.27006)" d="M0 0-6.106 13.189V0H-8.801V16.184H-4.807L1.3 2.949V16.184H3.994V0Z" fill="#ffffff"/>
<path transform="matrix(1,0,0,-1,153.965,408.45848)" d="M0 0C.682 0 1.355 .166 2.021 .499 2.687 .832 3.167 1.215 3.46 1.648V3.622H1.115C-.216 3.622-1.146 3.452-1.671 3.112-2.182 2.725-2.438 2.261-2.438 1.719-2.438 1.223-2.222 .812-1.788 .487-1.354 .163-.758 0 0 0M.72 5.689H3.46C3.46 6.447 3.167 7.016 2.578 7.396 1.989 7.774 1.139 7.965 .023 7.965H-.046C-1.099 7.965-2.214 7.717-3.39 7.221L-4.062 9.288C-2.84 9.813-1.493 10.084-.022 10.101H.023C1.975 10.101 3.472 9.725 4.517 8.974 5.562 8.224 6.084 7.027 6.084 5.388V-1.812H3.576V-.534C3.081-1.03 2.474-1.413 1.754-1.684 1.034-1.955 .302-2.09-.44-2.09-1.834-2.09-2.96-1.723-3.818-.987-4.678-.252-5.108 .649-5.108 1.719-5.108 2.91-4.573 3.893-3.505 4.667-2.515 5.348-1.106 5.689 .72 5.689" fill="#ffffff"/>
<path transform="matrix(1,0,0,-1,166.5012,394.89799)" d="M0 0V-3.738H2.529V-5.876H0V-11.796C0-12.354 .135-12.736 .405-12.944 .677-13.154 1.06-13.259 1.556-13.259H2.529V-15.372H.928C-.326-15.372-1.239-15.093-1.812-14.535-2.385-13.979-2.671-13.151-2.671-12.052V-5.876H-4.668V-3.738H-2.671V0Z" fill="#ffffff"/>
<path transform="matrix(1,0,0,-1,-80.2,732.68899)" d="M251.503 334.053H254.15001V322.419H251.503ZM254.498 337.675C254.498 337.241 254.331 336.858 253.999 336.524 253.666 336.192 253.267 336.025 252.803 336.025 252.339 336.025 251.939 336.192 251.607 336.524 251.274 336.858 251.107 337.241 251.107 337.675 251.107 338.139 251.274 338.538 251.607 338.87 251.939 339.203 252.339 339.369 252.803 339.369 253.267 339.369 253.666 339.203 253.999 338.87 254.331 338.538 254.498 338.139 254.498 337.675" fill="#ffffff"/>
<path transform="matrix(1,0,0,-1,182.5129,408.36576)" d="M0 0C.959 0 1.784 .367 2.473 1.104 3.162 1.838 3.506 2.771 3.506 3.901 3.506 5.016 3.162 5.947 2.473 6.699 1.784 7.449 .959 7.825 0 7.825-.944 7.825-1.761 7.449-2.45 6.699-3.139 5.947-3.482 5.016-3.482 3.901-3.482 2.771-3.139 1.838-2.45 1.104-1.761 .367-.944 0 0 0M0-2.183C-1.703-2.183-3.154-1.598-4.354-.43-5.553 .739-6.153 2.183-6.153 3.901-6.153 5.619-5.553 7.066-4.354 8.243-3.154 9.419-1.703 10.008 0 10.008 1.718 10.008 3.173 9.419 4.365 8.243 5.558 7.066 6.153 5.619 6.153 3.901 6.153 2.183 5.558 .739 4.365-.43 3.173-1.598 1.718-2.183 0-2.183" fill="#ffffff"/>
<path transform="matrix(1,0,0,-1,193.56072,404.41847)" d="M0 0V-5.852H-2.624V5.782H-.093V4.227C.218 4.768 .665 5.209 1.253 5.55 1.843 5.89 2.477 6.061 3.158 6.061 4.536 6.061 5.639 5.592 6.467 4.655 7.294 3.719 7.709 2.469 7.709 .905V-5.852H5.062V.232C5.062 1.47 4.86 2.388 4.458 2.984 4.056 3.58 3.437 3.878 2.601 3.878 2.167 3.878 1.746 3.734 1.336 3.448 .925 3.162 .611 2.771 .396 2.275 .132 1.703 0 .944 0 0" fill="#ffffff"/>
<path transform="matrix(1,0,0,-1,208.6252,408.45848)" d="M0 0C.682 0 1.354 .166 2.021 .499 2.687 .832 3.166 1.215 3.46 1.648V3.622H1.115C-.216 3.622-1.146 3.452-1.672 3.112-2.182 2.725-2.438 2.261-2.438 1.719-2.438 1.223-2.222 .812-1.788 .487-1.354 .163-.758 0 0 0M.72 5.689H3.46C3.46 6.447 3.166 7.016 2.578 7.396 1.989 7.774 1.139 7.965 .023 7.965H-.046C-1.099 7.965-2.214 7.717-3.39 7.221L-4.063 9.288C-2.84 9.813-1.493 10.084-.022 10.101H.023C1.975 10.101 3.472 9.725 4.517 8.974 5.562 8.224 6.083 7.027 6.083 5.388V-1.812H3.576V-.534C3.081-1.03 2.474-1.413 1.754-1.684 1.034-1.955 .302-2.09-.44-2.09-1.834-2.09-2.96-1.723-3.818-.987-4.678-.252-5.108 .649-5.108 1.719-5.108 2.91-4.573 3.893-3.505 4.667-2.516 5.348-1.106 5.689 .72 5.689" fill="#ffffff"/>
<path transform="matrix(1,0,0,-1,-80.2,732.68899)" d="M297.969 339.671H300.593V322.41899H297.969Z" fill="#ffffff"/>
<path transform="matrix(1,0,0,-1,246.7141,394.08647)" d="M0 0V-16.184H-2.6V-3.157L-6.826-16.184H-9.333L-13.56-3.157V-16.184H-16.16V0H-12.166L-8.079-12.607-3.992 0Z" fill="#ffffff"/>
<path transform="matrix(1,0,0,-1,257.5539,404.48878)" d="M0 0V5.853H2.646V-5.781H.116V-4.248C-.209-4.821-.643-5.256-1.184-5.548-1.819-5.89-2.477-6.06-3.157-6.06-4.521-6.06-5.615-5.596-6.443-4.666-7.271-3.738-7.686-2.483-7.686-.905V5.853H-5.062V-.255C-5.062-1.478-4.857-2.388-4.446-2.983-4.036-3.579-3.413-3.877-2.577-3.877-2.159-3.877-1.741-3.733-1.323-3.447-.906-3.161-.588-2.778-.372-2.299-.124-1.726 0-.959 0 0" fill="#ffffff"/>
<path transform="matrix(1,0,0,-1,262.1936,408.11088)" d="M0 0 1.647 1.695C2.113 1.062 2.623 .565 3.181 .21 3.723-.116 4.303-.278 4.923-.278 5.511-.278 6.009-.159 6.419 .082 6.829 .322 7.035 .644 7.035 1.045 7.035 1.447 6.837 1.762 6.443 1.985 6.049 2.21 5.58 2.423 5.038 2.624 4.403 2.825 3.753 3.05 3.087 3.298 2.189 3.622 1.532 4.04 1.114 4.552 .696 5.062 .487 5.644 .487 6.293 .487 7.253 .937 8.069 1.834 8.743 2.731 9.416 3.792 9.753 5.015 9.753 6.315 9.753 7.376 9.442 8.196 8.824 8.613 8.499 8.947 8.097 9.194 7.617L7.569 6.038C7.353 6.409 7.097 6.711 6.804 6.943 6.292 7.392 5.65 7.617 4.876 7.617 4.427 7.617 4.036 7.504 3.704 7.28 3.37 7.055 3.203 6.788 3.203 6.479 3.203 6.138 3.39 5.852 3.761 5.62 4.133 5.388 4.683 5.162 5.41 4.946 5.673 4.868 5.975 4.776 6.315 4.668 7.445 4.296 8.301 3.816 8.881 3.229 9.462 2.64 9.751 1.936 9.751 1.115 9.751 .155 9.287-.677 8.359-1.381 7.43-2.086 6.246-2.438 4.807-2.438 3.599-2.438 2.531-2.159 1.602-1.602 .982-1.229 .448-.696 0 0" fill="#ffffff"/>
<path transform="matrix(1,0,0,-1,275.9348,403.53666)" d="M0 0H6.455C6.424 .76 6.107 1.452 5.504 2.078 4.899 2.706 4.133 3.019 3.204 3.019 2.244 3.019 1.455 2.679 .836 1.997 .387 1.487 .107 .821 0 0M.046-2.089C.201-2.802 .533-3.382 1.045-3.831 1.789-4.513 2.771-4.853 3.994-4.853 5.278-4.853 6.478-4.381 7.593-3.436L8.383-5.387C7.129-6.47 5.642-7.012 3.924-7.012 1.959-7.012 .36-6.454-.871-5.34-2.101-4.225-2.717-2.763-2.717-.952-2.717 .828-2.171 2.296-1.079 3.449 .012 4.602 1.439 5.179 3.204 5.179 4.937 5.179 6.358 4.606 7.466 3.46 8.572 2.315 9.125 .897 9.125-.788 9.125-1.254 9.086-1.687 9.009-2.089Z" fill="#ffffff"/>
<path transform="matrix(1,0,0,-1,294.9934,404.48878)" d="M0 0V5.853H2.646V-5.781H.116V-4.248C-.209-4.821-.643-5.256-1.184-5.548-1.819-5.89-2.477-6.06-3.157-6.06-4.521-6.06-5.615-5.596-6.443-4.666-7.271-3.738-7.686-2.483-7.686-.905V5.853H-5.062V-.255C-5.062-1.478-4.857-2.388-4.446-2.983-4.036-3.579-3.413-3.877-2.577-3.877-2.159-3.877-1.741-3.733-1.323-3.447-.906-3.161-.588-2.778-.372-2.299-.124-1.726 0-.959 0 0" fill="#ffffff"/>
<path transform="matrix(1,0,0,-1,313.05293,398.35789)" d="M0 0C1.363 0 2.423-.469 3.181-1.405 3.94-2.342 4.319-3.592 4.319-5.155V-11.912H1.719V-5.828C1.719-4.591 1.552-3.673 1.22-3.076 .887-2.48 .341-2.183-.418-2.183-.866-2.183-1.257-2.311-1.591-2.566-1.923-2.821-2.189-3.197-2.392-3.691-2.607-4.203-2.716-4.915-2.716-5.828V-11.912H-5.316V-5.828C-5.316-4.591-5.486-3.673-5.828-3.076-6.168-2.48-6.71-2.183-7.453-2.183-7.901-2.183-8.284-2.311-8.603-2.566-8.92-2.821-9.187-3.197-9.403-3.691-9.636-4.265-9.751-5.023-9.751-5.967V-5.944-11.912H-12.353V-.278H-9.891V-1.834C-9.241-.612-8.235 0-6.872 0-5.418 0-4.349-.704-3.669-2.113-3.266-1.416-2.782-.891-2.217-.534-1.652-.179-.913 0 0 0" fill="#ffffff"/>
<path transform="matrix(1,0,0,-1,332.45533,408.36576)" d="M0 0C.96 0 1.784 .367 2.473 1.104 3.162 1.838 3.507 2.771 3.507 3.901 3.507 5.016 3.162 5.947 2.473 6.699 1.784 7.449 .96 7.825 0 7.825-.944 7.825-1.761 7.449-2.45 6.699-3.138 5.947-3.483 5.016-3.483 3.901-3.483 2.771-3.138 1.838-2.45 1.104-1.761 .367-.944 0 0 0M0-2.183C-1.703-2.183-3.153-1.598-4.354-.43-5.554 .739-6.153 2.183-6.153 3.901-6.153 5.619-5.554 7.066-4.354 8.243-3.153 9.419-1.703 10.008 0 10.008 1.718 10.008 3.173 9.419 4.365 8.243 5.558 7.066 6.153 5.619 6.153 3.901 6.153 2.183 5.558 .739 4.365-.43 3.173-1.598 1.718-2.183 0-2.183" fill="#ffffff"/>
<path transform="matrix(1,0,0,-1,341.48359,396.31498)" d="M0 0C0 1.1 .305 1.927 .917 2.484 1.528 3.042 2.461 3.32 3.715 3.32H4.992V1.207H4.227C3.73 1.207 3.348 1.103 3.076 .895 2.806 .685 2.671 .302 2.671-.256V-2.321H4.992V-4.459H2.671V-13.955H0V-4.459H-1.997V-2.321H0Z" fill="#ffffff"/>
<path transform="matrix(1,0,0,-1,358.3557,401.60887)" d="M0 0 6.733 7.522H10.007L2.786-.511 9.983-8.661H6.616L0-1.138V-8.661H-2.694V7.522H0Z" fill="#ffffff"/>
<path transform="matrix(1,0,0,-1,374.2326,408.36576)" d="M0 0C.96 0 1.784 .367 2.473 1.104 3.162 1.838 3.507 2.771 3.507 3.901 3.507 5.016 3.162 5.947 2.473 6.699 1.784 7.449 .96 7.825 0 7.825-.944 7.825-1.761 7.449-2.45 6.699-3.138 5.947-3.483 5.016-3.483 3.901-3.483 2.771-3.138 1.838-2.45 1.104-1.761 .367-.944 0 0 0M0-2.183C-1.703-2.183-3.154-1.598-4.354-.43-5.554 .739-6.153 2.183-6.153 3.901-6.153 5.619-5.554 7.066-4.354 8.243-3.154 9.419-1.703 10.008 0 10.008 1.718 10.008 3.173 9.419 4.364 8.243 5.558 7.066 6.153 5.619 6.153 3.901 6.153 2.183 5.558 .739 4.364-.43 3.173-1.598 1.718-2.183 0-2.183" fill="#ffffff"/>
<path transform="matrix(1,0,0,-1,382.6574,410.27006)" d="M0 0V11.634H2.484V9.892C2.871 10.464 3.343 10.906 3.9 11.216 4.566 11.617 5.348 11.819 6.245 11.819H6.432V9.45H6.153C5.054 9.45 4.179 9.118 3.528 8.452 2.925 7.803 2.623 6.787 2.623 5.41V0Z" fill="#ffffff"/>
<path transform="matrix(1,0,0,-1,392.63594,403.53666)" d="M0 0H6.455C6.424 .76 6.107 1.452 5.504 2.078 4.899 2.706 4.133 3.019 3.204 3.019 2.245 3.019 1.455 2.679 .836 1.997 .387 1.487 .107 .821 0 0M.046-2.089C.201-2.802 .533-3.382 1.045-3.831 1.789-4.513 2.771-4.853 3.994-4.853 5.278-4.853 6.478-4.381 7.593-3.436L8.383-5.387C7.129-6.47 5.643-7.012 3.924-7.012 1.959-7.012 .36-6.454-.871-5.34-2.101-4.225-2.717-2.763-2.717-.952-2.717 .828-2.171 2.296-1.079 3.449 .012 4.602 1.439 5.179 3.204 5.179 4.937 5.179 6.358 4.606 7.466 3.46 8.572 2.315 9.125 .897 9.125-.788 9.125-1.254 9.087-1.687 9.009-2.089Z" fill="#ffffff"/>
<path transform="matrix(1,0,0,-1,408.3039,408.45848)" d="M0 0C.682 0 1.355 .166 2.021 .499 2.687 .832 3.166 1.215 3.461 1.648V3.622H1.115C-.216 3.622-1.146 3.452-1.672 3.112-2.182 2.725-2.438 2.261-2.438 1.719-2.438 1.223-2.221 .812-1.787 .487-1.354 .163-.758 0 0 0M.72 5.689H3.461C3.461 6.447 3.166 7.016 2.578 7.396 1.989 7.774 1.139 7.965 .023 7.965H-.046C-1.098 7.965-2.213 7.717-3.389 7.221L-4.062 9.288C-2.84 9.813-1.493 10.084-.022 10.101H.023C1.975 10.101 3.472 9.725 4.518 8.974 5.562 8.224 6.084 7.027 6.084 5.388V-1.812H3.576V-.534C3.081-1.03 2.474-1.413 1.754-1.684 1.034-1.955 .302-2.09-.44-2.09-1.834-2.09-2.96-1.723-3.818-.987-4.678-.252-5.108 .649-5.108 1.719-5.108 2.91-4.573 3.893-3.505 4.667-2.516 5.348-1.105 5.689 .72 5.689" fill="#ffffff"/>
<path transform="matrix(1,0,0,-1,165.1516,342.14897)" d="M0 0V-11.814H-4.93V-4.353H-30.557V0ZM-17.676-25.094V-19.32H-33.398V-14.968H3.021V-19.32H-12.746V-25.094H.09V-38.906H-4.84V-29.402H-30.912V-25.094Z" fill="#ffffff"/>
<path transform="matrix(1,0,0,-1,-80.2,732.68899)" d="M283.236 391.339H288.166V369.22099H283.236ZM283.326 360.604H261.96299V356.607H283.326ZM257.121 367.889H261.963V364.603H283.326V367.889H288.166V352.521H257.121ZM276.264 369.977H254.9V382.057H270.934V386.01H254.9V390.185H275.82V378.06H259.787V374.062H276.264Z" fill="#ffffff"/>
<path transform="matrix(1,0,0,-1,238.03441,373.54939)" d="M0 0C0 1.361-.51 2.538-1.531 3.53-2.553 4.522-3.746 5.019-5.107 5.019-6.469 5.019-7.66 4.522-8.682 3.53-9.703 2.538-10.215 1.361-10.215 0-10.215-1.362-9.703-2.54-8.682-3.531-7.66-4.523-6.469-5.02-5.107-5.02-3.746-5.02-2.553-4.523-1.531-3.531-.51-2.54 0-1.362 0 0M10.527 27.536H-2.842L11.281 20.074 9.018 16.433-5.107 23.938-19.275 16.433-21.496 20.074-7.371 27.536H-20.74V31.711H10.527ZM-7.594 8.927V11.325H-23.316V15.544H13.104V11.325H-2.664V8.927C-2.16 8.808-1.687 8.66-1.242 8.482-.029 7.979 1.021 7.312 1.91 6.484 2.799 5.654 3.51 4.686 4.043 3.575 4.576 2.465 4.842 1.272 4.842 0 4.842-1.273 4.576-2.466 4.043-3.576 3.51-4.687 2.799-5.655 1.91-6.484 1.021-7.313-.029-7.973-1.242-8.461-2.457-8.95-3.746-9.194-5.107-9.194-6.469-9.194-7.758-8.95-8.971-8.461-10.186-7.973-11.236-7.313-12.125-6.484-13.012-5.655-13.723-4.687-14.256-3.576-14.789-2.466-15.055-1.273-15.055 0-15.055 1.272-14.789 2.465-14.256 3.575-13.723 4.686-13.012 5.654-12.125 6.484-11.236 7.312-10.186 7.979-8.971 8.482-8.527 8.66-8.068 8.808-7.594 8.927" fill="#ffffff"/>
<path transform="matrix(1,0,0,-1,288.3117,362.35789)" d="M0 0H-4.887V21.008H0V13.059H5.686V8.173H0ZM-6.574-9.904C-6.574-8.364-7.137-7.032-8.262-5.906-9.387-4.781-10.734-4.219-12.303-4.219-13.873-4.219-15.213-4.781-16.322-5.906-17.434-7.032-17.988-8.364-17.988-9.904-17.988-11.474-17.434-12.806-16.322-13.901-15.213-14.996-13.873-15.544-12.303-15.544-10.734-15.544-9.387-14.996-8.262-13.901-7.137-12.806-6.574-11.474-6.574-9.904M-1.777-9.948C-1.777-11.311-2.059-12.591-2.621-13.79-3.184-14.989-3.924-16.033-4.842-16.921-5.818-17.839-6.936-18.564-8.195-19.098-9.453-19.631-10.809-19.896-12.258-19.896-13.709-19.896-15.072-19.631-16.344-19.098-17.617-18.564-18.742-17.839-19.721-16.921-20.668-16.033-21.424-14.989-21.984-13.79-22.549-12.591-22.828-11.311-22.828-9.948-22.828-8.587-22.549-7.299-21.984-6.084-21.424-4.87-20.668-3.834-19.721-2.976-18.742-2.058-17.617-1.332-16.344-.799-15.072-.266-13.709 0-12.258 0-10.809 0-9.453-.266-8.195-.799-6.936-1.332-5.818-2.058-4.842-2.976-3.924-3.834-3.184-4.87-2.621-6.084-2.059-7.299-1.777-8.587-1.777-9.948M-15.945 10.615C-15.945 12.243-16.521 13.636-17.678 14.79-18.832 15.945-20.225 16.522-21.852 16.522-23.51 16.522-24.902 15.945-26.027 14.79-27.152 13.636-27.715 12.243-27.715 10.615-27.715 8.957-27.152 7.558-26.027 6.418-24.902 5.278-23.51 4.708-21.852 4.708-20.225 4.708-18.832 5.278-17.678 6.418-16.521 7.558-15.945 8.957-15.945 10.615M-11.193 10.66C-11.193 9.238-11.48 7.921-12.059 6.707-12.637 5.492-13.398 4.427-14.346 3.509-15.322 2.591-16.455 1.866-17.744 1.333-19.031 .8-20.402 .533-21.852 .533-23.303 .533-24.672 .8-25.961 1.333-27.248 1.866-28.381 2.591-29.357 3.509-30.334 4.427-31.111 5.492-31.689 6.707-32.268 7.921-32.555 9.238-32.555 10.66-32.555 12.051-32.268 13.361-31.689 14.591-31.111 15.818-30.334 16.878-29.357 17.766-28.381 18.684-27.248 19.409-25.961 19.942-24.672 20.476-23.303 20.742-21.852 20.742-20.402 20.742-19.031 20.476-17.744 19.942-16.455 19.409-15.322 18.684-14.346 17.766-13.398 16.878-12.637 15.818-12.059 14.591-11.48 13.361-11.193 12.051-11.193 10.66" fill="#ffffff"/>
<path transform="matrix(1,0,0,-1,329.79414,363.60108)" d="M0 0H-4.887V22.251H0V13.946H5.686V9.061H0ZM-16.123 11.681H-27.049V5.5519998H-16.123ZM-31.18-2.354H0V-17.011H-4.887V-6.706H-31.18ZM-31.934 21.407H-27.049V15.944H-16.123V21.407H-11.326V1.421H-31.934Z" fill="#ffffff"/>
<path transform="matrix(1,0,0,-1,-80.2,732.68899)" d="M447.967 386.854H427.13703V382.23503H447.967ZM422.297 390.851H452.854V378.282H422.297ZM435.088 368.866V371.619H419.365V375.661H455.785V371.619H440.018V368.866H452.854V358.828H427.137V356.43H453.387V352.389H422.297V362.692H447.967V364.957H422.297V368.866Z" fill="#ffffff"/>
<path transform="matrix(1,0,0,-1,413.6906,367.37648)" d="M0 0H-4.93V26.026H0V15.367H5.064V10.882H0ZM-30.867-12.924V-1.021H-25.937V-8.571H.711V-12.924ZM-15.012 10.394V20.919H-31.889V25.228H-10.17V10.394ZM-7.949 6.618V2.31H-33.664V6.618H-25.627V15.456H-20.74V6.618Z" fill="#ffffff"/>
<path transform="matrix(1,0,0,-1,109.95621,376.74168)" d="M0 0C0-30.467-24.697-55.165-55.17-55.165-85.633-55.165-110.334-30.467-110.334 0-110.334 30.476-85.633 55.174-55.17 55.174-24.697 55.174 0 30.476 0 0" fill="#ffffff"/>
<path transform="matrix(1,0,0,-1,80.314609,372.96147)" d="M0 0C-8.638 5.873-19.692 3.479-25.497-5.346-30.341-12.711-37.662-13.634-40.493-13.634-49.729-13.634-56.039-7.138-57.915-.418H-57.921C-57.942-.352-57.956-.294-57.979-.228-57.993-.15-58.013-.08-58.032 0-58.768 2.806-58.951 4.146-58.951 7.127-58.951 23.202-42.456 41.094-18.712 41.094 5.612 41.094 19.531 22.578 23.121 12.289 23.058 12.47 22.995 12.653 22.938 12.839 16.038 32.96-3.05 47.435-25.528 47.435-53.803 47.435-76.738 24.512-76.738-3.78-76.738-29.067-58.499-50.712-33.207-50.712-13.028-50.712 .528-39.396 6.745-23.809 10.157-15.281 7.748-5.26 0 0" fill="#083f67"/>
<path transform="matrix(1,0,0,-1,103.7453,361.67237)" d="M0 0C-2.982 10.041-17.006 29.805-42.143 29.805-65.887 29.805-82.382 11.911-82.382-4.164-82.382-7.143-82.198-8.483-81.464-11.287-81.769-10.06-81.927-8.832-81.927-7.636-81.927 9.107-65.172 20.703-47.938 20.703-24.618 20.703-5.715 1.799-5.715-21.523-5.715-39.805-16.232-55.628-31.521-63.23V-63.244C-11.811-56.107 2.259-37.237 2.259-15.069 2.259-9.829 1.553-5.198 0 0" fill="#ee2540"/>
<path transform="matrix(1,0,0,-1,142.5471,601.8326)" d="M0 0-6.106 13.189V0H-8.801V16.184H-4.807L1.3 2.949V16.184H3.994V0Z" fill="#ffffff"/>
<path transform="matrix(1,0,0,-1,153.965,600.021)" d="M0 0C.682 0 1.355 .166 2.021 .499 2.687 .832 3.167 1.215 3.46 1.648V3.622H1.115C-.216 3.622-1.146 3.452-1.671 3.112-2.182 2.725-2.438 2.261-2.438 1.719-2.438 1.223-2.222 .812-1.788 .487-1.354 .163-.758 0 0 0M.72 5.689H3.46C3.46 6.447 3.167 7.016 2.578 7.396 1.989 7.774 1.139 7.965 .023 7.965H-.046C-1.099 7.965-2.214 7.717-3.39 7.221L-4.062 9.288C-2.84 9.813-1.493 10.084-.022 10.101H.023C1.975 10.101 3.472 9.725 4.517 8.974 5.562 8.224 6.084 7.027 6.084 5.388V-1.812H3.576V-.534C3.081-1.03 2.474-1.413 1.754-1.684 1.034-1.955 .302-2.09-.44-2.09-1.834-2.09-2.96-1.723-3.818-.987-4.678-.252-5.108 .649-5.108 1.719-5.108 2.91-4.573 3.893-3.505 4.667-2.515 5.348-1.106 5.689 .72 5.689" fill="#ffffff"/>
<path transform="matrix(1,0,0,-1,166.5012,586.46047)" d="M0 0V-3.738H2.529V-5.876H0V-11.796C0-12.354 .135-12.736 .405-12.944 .677-13.154 1.06-13.259 1.556-13.259H2.529V-15.372H.928C-.326-15.372-1.239-15.093-1.812-14.535-2.385-13.979-2.671-13.151-2.671-12.052V-5.876H-4.668V-3.738H-2.671V0Z" fill="#ffffff"/>
<path transform="matrix(1,0,0,-1,-80.2,732.68899)" d="M251.503 142.49H254.15001V130.856H251.503ZM254.498 146.112C254.498 145.679 254.331 145.296 253.999 144.962 253.666 144.63 253.267 144.463 252.803 144.463 252.339 144.463 251.939 144.63 251.607 144.962 251.274 145.296 251.107 145.679 251.107 146.112 251.107 146.576 251.274 146.976 251.607 147.308 251.939 147.641 252.339 147.807 252.803 147.807 253.267 147.807 253.666 147.641 253.999 147.308 254.331 146.976 254.498 146.576 254.498 146.112" fill="#ffffff"/>
<path transform="matrix(1,0,0,-1,182.5129,599.9283)" d="M0 0C.959 0 1.784 .367 2.473 1.104 3.162 1.838 3.506 2.771 3.506 3.901 3.506 5.016 3.162 5.947 2.473 6.699 1.784 7.449 .959 7.825 0 7.825-.944 7.825-1.761 7.449-2.45 6.699-3.139 5.947-3.482 5.016-3.482 3.901-3.482 2.771-3.139 1.838-2.45 1.104-1.761 .367-.944 0 0 0M0-2.183C-1.703-2.183-3.154-1.598-4.354-.43-5.553 .739-6.153 2.183-6.153 3.901-6.153 5.619-5.553 7.066-4.354 8.243-3.154 9.419-1.703 10.008 0 10.008 1.718 10.008 3.173 9.419 4.365 8.243 5.558 7.066 6.153 5.619 6.153 3.901 6.153 2.183 5.558 .739 4.365-.43 3.173-1.598 1.718-2.183 0-2.183" fill="#ffffff"/>
<path transform="matrix(1,0,0,-1,193.56072,595.98098)" d="M0 0V-5.852H-2.624V5.782H-.093V4.227C.218 4.768 .665 5.209 1.253 5.55 1.843 5.89 2.477 6.061 3.158 6.061 4.536 6.061 5.639 5.592 6.467 4.655 7.294 3.719 7.709 2.469 7.709 .905V-5.852H5.062V.232C5.062 1.47 4.86 2.388 4.458 2.984 4.056 3.58 3.437 3.878 2.601 3.878 2.167 3.878 1.746 3.734 1.336 3.448 .925 3.162 .611 2.771 .396 2.275 .132 1.703 0 .944 0 0" fill="#ffffff"/>
<path transform="matrix(1,0,0,-1,208.6252,600.021)" d="M0 0C.682 0 1.354 .166 2.021 .499 2.687 .832 3.166 1.215 3.46 1.648V3.622H1.115C-.216 3.622-1.146 3.452-1.672 3.112-2.182 2.725-2.438 2.261-2.438 1.719-2.438 1.223-2.222 .812-1.788 .487-1.354 .163-.758 0 0 0M.72 5.689H3.46C3.46 6.447 3.166 7.016 2.578 7.396 1.989 7.774 1.139 7.965 .023 7.965H-.046C-1.099 7.965-2.214 7.717-3.39 7.221L-4.063 9.288C-2.84 9.813-1.493 10.084-.022 10.101H.023C1.975 10.101 3.472 9.725 4.517 8.974 5.562 8.224 6.083 7.027 6.083 5.388V-1.812H3.576V-.534C3.081-1.03 2.474-1.413 1.754-1.684 1.034-1.955 .302-2.09-.44-2.09-1.834-2.09-2.96-1.723-3.818-.987-4.678-.252-5.108 .649-5.108 1.719-5.108 2.91-4.573 3.893-3.505 4.667-2.516 5.348-1.106 5.689 .72 5.689" fill="#ffffff"/>
<path transform="matrix(1,0,0,-1,-80.2,732.68899)" d="M297.969 148.108H300.593V130.856H297.969Z" fill="#ffffff"/>
<path transform="matrix(1,0,0,-1,246.7141,585.649)" d="M0 0V-16.184H-2.6V-3.157L-6.826-16.184H-9.333L-13.56-3.157V-16.184H-16.16V0H-12.166L-8.079-12.607-3.992 0Z" fill="#ffffff"/>
<path transform="matrix(1,0,0,-1,257.5539,596.0513)" d="M0 0V5.853H2.646V-5.781H.116V-4.248C-.209-4.821-.643-5.256-1.184-5.548-1.819-5.89-2.477-6.06-3.157-6.06-4.521-6.06-5.615-5.596-6.443-4.666-7.271-3.738-7.686-2.483-7.686-.905V5.853H-5.062V-.255C-5.062-1.478-4.857-2.388-4.446-2.983-4.036-3.579-3.413-3.877-2.577-3.877-2.159-3.877-1.741-3.733-1.323-3.447-.906-3.161-.588-2.778-.372-2.299-.124-1.726 0-.959 0 0" fill="#ffffff"/>
<path transform="matrix(1,0,0,-1,262.1936,599.67337)" d="M0 0 1.647 1.695C2.113 1.062 2.623 .565 3.181 .21 3.723-.116 4.303-.278 4.923-.278 5.511-.278 6.009-.159 6.419 .082 6.829 .322 7.035 .644 7.035 1.045 7.035 1.447 6.837 1.762 6.443 1.985 6.049 2.21 5.58 2.423 5.038 2.624 4.403 2.825 3.753 3.05 3.087 3.298 2.189 3.622 1.532 4.04 1.114 4.552 .696 5.062 .487 5.644 .487 6.293 .487 7.253 .937 8.069 1.834 8.743 2.731 9.416 3.792 9.753 5.015 9.753 6.315 9.753 7.376 9.442 8.196 8.824 8.613 8.499 8.947 8.097 9.194 7.617L7.569 6.038C7.353 6.409 7.097 6.711 6.804 6.943 6.292 7.392 5.65 7.617 4.876 7.617 4.427 7.617 4.036 7.504 3.704 7.28 3.37 7.055 3.203 6.788 3.203 6.479 3.203 6.138 3.39 5.852 3.761 5.62 4.133 5.388 4.683 5.162 5.41 4.946 5.673 4.868 5.975 4.776 6.315 4.668 7.445 4.296 8.301 3.816 8.881 3.229 9.462 2.64 9.751 1.936 9.751 1.115 9.751 .155 9.287-.677 8.359-1.381 7.43-2.086 6.246-2.438 4.807-2.438 3.599-2.438 2.531-2.159 1.602-1.602 .982-1.229 .448-.696 0 0" fill="#ffffff"/>
<path transform="matrix(1,0,0,-1,275.9348,595.0992)" d="M0 0H6.455C6.424 .76 6.107 1.452 5.504 2.078 4.899 2.706 4.133 3.019 3.204 3.019 2.244 3.019 1.455 2.679 .836 1.997 .387 1.487 .107 .821 0 0M.046-2.089C.201-2.802 .533-3.382 1.045-3.831 1.789-4.513 2.771-4.853 3.994-4.853 5.278-4.853 6.478-4.381 7.593-3.436L8.383-5.387C7.129-6.47 5.642-7.012 3.924-7.012 1.959-7.012 .36-6.454-.871-5.34-2.101-4.225-2.717-2.763-2.717-.952-2.717 .828-2.171 2.296-1.079 3.449 .012 4.602 1.439 5.179 3.204 5.179 4.937 5.179 6.358 4.606 7.466 3.46 8.572 2.315 9.125 .897 9.125-.788 9.125-1.254 9.086-1.687 9.009-2.089Z" fill="#ffffff"/>
<path transform="matrix(1,0,0,-1,294.9934,596.0513)" d="M0 0V5.853H2.646V-5.781H.116V-4.248C-.209-4.821-.643-5.256-1.184-5.548-1.819-5.89-2.477-6.06-3.157-6.06-4.521-6.06-5.615-5.596-6.443-4.666-7.271-3.738-7.686-2.483-7.686-.905V5.853H-5.062V-.255C-5.062-1.478-4.857-2.388-4.446-2.983-4.036-3.579-3.413-3.877-2.577-3.877-2.159-3.877-1.741-3.733-1.323-3.447-.906-3.161-.588-2.778-.372-2.299-.124-1.726 0-.959 0 0" fill="#ffffff"/>
<path transform="matrix(1,0,0,-1,313.05293,589.92037)" d="M0 0C1.363 0 2.423-.469 3.181-1.405 3.94-2.342 4.319-3.592 4.319-5.155V-11.912H1.719V-5.828C1.719-4.591 1.552-3.673 1.22-3.076 .887-2.48 .341-2.183-.418-2.183-.866-2.183-1.257-2.311-1.591-2.566-1.923-2.821-2.189-3.197-2.392-3.691-2.607-4.203-2.716-4.915-2.716-5.828V-11.912H-5.316V-5.828C-5.316-4.591-5.486-3.673-5.828-3.076-6.168-2.48-6.71-2.183-7.453-2.183-7.901-2.183-8.284-2.311-8.603-2.566-8.92-2.821-9.187-3.197-9.403-3.691-9.636-4.265-9.751-5.023-9.751-5.967V-5.944-11.912H-12.353V-.278H-9.891V-1.834C-9.241-.612-8.235 0-6.872 0-5.418 0-4.349-.704-3.669-2.113-3.266-1.416-2.782-.891-2.217-.534-1.652-.179-.913 0 0 0" fill="#ffffff"/>
<path transform="matrix(1,0,0,-1,332.45533,599.9283)" d="M0 0C.96 0 1.784 .367 2.473 1.104 3.162 1.838 3.507 2.771 3.507 3.901 3.507 5.016 3.162 5.947 2.473 6.699 1.784 7.449 .96 7.825 0 7.825-.944 7.825-1.761 7.449-2.45 6.699-3.138 5.947-3.483 5.016-3.483 3.901-3.483 2.771-3.138 1.838-2.45 1.104-1.761 .367-.944 0 0 0M0-2.183C-1.703-2.183-3.153-1.598-4.354-.43-5.554 .739-6.153 2.183-6.153 3.901-6.153 5.619-5.554 7.066-4.354 8.243-3.153 9.419-1.703 10.008 0 10.008 1.718 10.008 3.173 9.419 4.365 8.243 5.558 7.066 6.153 5.619 6.153 3.901 6.153 2.183 5.558 .739 4.365-.43 3.173-1.598 1.718-2.183 0-2.183" fill="#ffffff"/>
<path transform="matrix(1,0,0,-1,341.48359,587.87747)" d="M0 0C0 1.1 .305 1.927 .917 2.484 1.528 3.042 2.461 3.32 3.715 3.32H4.992V1.207H4.227C3.73 1.207 3.348 1.103 3.076 .895 2.806 .685 2.671 .302 2.671-.256V-2.321H4.992V-4.459H2.671V-13.955H0V-4.459H-1.997V-2.321H0Z" fill="#ffffff"/>
<path transform="matrix(1,0,0,-1,358.3557,593.1714)" d="M0 0 6.733 7.522H10.007L2.786-.511 9.983-8.661H6.616L0-1.138V-8.661H-2.694V7.522H0Z" fill="#ffffff"/>
<path transform="matrix(1,0,0,-1,374.2326,599.9283)" d="M0 0C.96 0 1.784 .367 2.473 1.104 3.162 1.838 3.507 2.771 3.507 3.901 3.507 5.016 3.162 5.947 2.473 6.699 1.784 7.449 .96 7.825 0 7.825-.944 7.825-1.761 7.449-2.45 6.699-3.138 5.947-3.483 5.016-3.483 3.901-3.483 2.771-3.138 1.838-2.45 1.104-1.761 .367-.944 0 0 0M0-2.183C-1.703-2.183-3.154-1.598-4.354-.43-5.554 .739-6.153 2.183-6.153 3.901-6.153 5.619-5.554 7.066-4.354 8.243-3.154 9.419-1.703 10.008 0 10.008 1.718 10.008 3.173 9.419 4.364 8.243 5.558 7.066 6.153 5.619 6.153 3.901 6.153 2.183 5.558 .739 4.364-.43 3.173-1.598 1.718-2.183 0-2.183" fill="#ffffff"/>
<path transform="matrix(1,0,0,-1,382.6574,601.8326)" d="M0 0V11.634H2.484V9.892C2.871 10.464 3.343 10.906 3.9 11.216 4.566 11.617 5.348 11.819 6.245 11.819H6.432V9.45H6.153C5.054 9.45 4.179 9.118 3.528 8.452 2.925 7.803 2.623 6.787 2.623 5.41V0Z" fill="#ffffff"/>
<path transform="matrix(1,0,0,-1,392.63594,595.0992)" d="M0 0H6.455C6.424 .76 6.107 1.452 5.504 2.078 4.899 2.706 4.133 3.019 3.204 3.019 2.245 3.019 1.455 2.679 .836 1.997 .387 1.487 .107 .821 0 0M.046-2.089C.201-2.802 .533-3.382 1.045-3.831 1.789-4.513 2.771-4.853 3.994-4.853 5.278-4.853 6.478-4.381 7.593-3.436L8.383-5.387C7.129-6.47 5.643-7.012 3.924-7.012 1.959-7.012 .36-6.454-.871-5.34-2.101-4.225-2.717-2.763-2.717-.952-2.717 .828-2.171 2.296-1.079 3.449 .012 4.602 1.439 5.179 3.204 5.179 4.937 5.179 6.358 4.606 7.466 3.46 8.572 2.315 9.125 .897 9.125-.788 9.125-1.254 9.087-1.687 9.009-2.089Z" fill="#ffffff"/>
<path transform="matrix(1,0,0,-1,408.3039,600.021)" d="M0 0C.682 0 1.355 .166 2.021 .499 2.687 .832 3.166 1.215 3.461 1.648V3.622H1.115C-.216 3.622-1.146 3.452-1.672 3.112-2.182 2.725-2.438 2.261-2.438 1.719-2.438 1.223-2.221 .812-1.787 .487-1.354 .163-.758 0 0 0M.72 5.689H3.461C3.461 6.447 3.166 7.016 2.578 7.396 1.989 7.774 1.139 7.965 .023 7.965H-.046C-1.098 7.965-2.213 7.717-3.389 7.221L-4.062 9.288C-2.84 9.813-1.493 10.084-.022 10.101H.023C1.975 10.101 3.472 9.725 4.518 8.974 5.562 8.224 6.084 7.027 6.084 5.388V-1.812H3.576V-.534C3.081-1.03 2.474-1.413 1.754-1.684 1.034-1.955 .302-2.09-.44-2.09-1.834-2.09-2.96-1.723-3.818-.987-4.678-.252-5.108 .649-5.108 1.719-5.108 2.91-4.573 3.893-3.505 4.667-2.516 5.348-1.105 5.689 .72 5.689" fill="#ffffff"/>
<path transform="matrix(1,0,0,-1,165.1516,533.7115)" d="M0 0V-11.814H-4.93V-4.353H-30.557V0ZM-17.676-25.094V-19.32H-33.398V-14.968H3.021V-19.32H-12.746V-25.094H.09V-38.906H-4.84V-29.402H-30.912V-25.094Z" fill="#ffffff"/>
<path transform="matrix(1,0,0,-1,-80.2,732.68899)" d="M283.236 199.776H288.166V177.658H283.236ZM283.326 169.042H261.96299V165.04502H283.326ZM257.121 176.326H261.963V173.04H283.326V176.326H288.166V160.959H257.121ZM276.264 178.414H254.9V190.494H270.934V194.447H254.9V198.622H275.82V186.497H259.787V182.5H276.264Z" fill="#ffffff"/>
<path transform="matrix(1,0,0,-1,238.03441,565.1119)" d="M0 0C0 1.361-.51 2.538-1.531 3.53-2.553 4.522-3.746 5.019-5.107 5.019-6.469 5.019-7.66 4.522-8.682 3.53-9.703 2.538-10.215 1.361-10.215 0-10.215-1.362-9.703-2.54-8.682-3.531-7.66-4.523-6.469-5.02-5.107-5.02-3.746-5.02-2.553-4.523-1.531-3.531-.51-2.54 0-1.362 0 0M10.527 27.536H-2.842L11.281 20.074 9.018 16.433-5.107 23.938-19.275 16.433-21.496 20.074-7.371 27.536H-20.74V31.711H10.527ZM-7.594 8.927V11.325H-23.316V15.544H13.104V11.325H-2.664V8.927C-2.16 8.808-1.687 8.66-1.242 8.482-.029 7.979 1.021 7.312 1.91 6.484 2.799 5.654 3.51 4.686 4.043 3.575 4.576 2.465 4.842 1.272 4.842 0 4.842-1.273 4.576-2.466 4.043-3.576 3.51-4.687 2.799-5.655 1.91-6.484 1.021-7.313-.029-7.973-1.242-8.461-2.457-8.95-3.746-9.194-5.107-9.194-6.469-9.194-7.758-8.95-8.971-8.461-10.186-7.973-11.236-7.313-12.125-6.484-13.012-5.655-13.723-4.687-14.256-3.576-14.789-2.466-15.055-1.273-15.055 0-15.055 1.272-14.789 2.465-14.256 3.575-13.723 4.686-13.012 5.654-12.125 6.484-11.236 7.312-10.186 7.979-8.971 8.482-8.527 8.66-8.068 8.808-7.594 8.927" fill="#ffffff"/>
<path transform="matrix(1,0,0,-1,288.3117,553.92037)" d="M0 0H-4.887V21.008H0V13.059H5.686V8.173H0ZM-6.574-9.904C-6.574-8.364-7.137-7.032-8.262-5.906-9.387-4.781-10.734-4.219-12.303-4.219-13.873-4.219-15.213-4.781-16.322-5.906-17.434-7.032-17.988-8.364-17.988-9.904-17.988-11.474-17.434-12.806-16.322-13.901-15.213-14.996-13.873-15.544-12.303-15.544-10.734-15.544-9.387-14.996-8.262-13.901-7.137-12.806-6.574-11.474-6.574-9.904M-1.777-9.948C-1.777-11.311-2.059-12.591-2.621-13.79-3.184-14.989-3.924-16.033-4.842-16.921-5.818-17.839-6.936-18.564-8.195-19.098-9.453-19.631-10.809-19.896-12.258-19.896-13.709-19.896-15.072-19.631-16.344-19.098-17.617-18.564-18.742-17.839-19.721-16.921-20.668-16.033-21.424-14.989-21.984-13.79-22.549-12.591-22.828-11.311-22.828-9.948-22.828-8.587-22.549-7.299-21.984-6.084-21.424-4.87-20.668-3.834-19.721-2.976-18.742-2.058-17.617-1.332-16.344-.799-15.072-.266-13.709 0-12.258 0-10.809 0-9.453-.266-8.195-.799-6.936-1.332-5.818-2.058-4.842-2.976-3.924-3.834-3.184-4.87-2.621-6.084-2.059-7.299-1.777-8.587-1.777-9.948M-15.945 10.615C-15.945 12.243-16.521 13.636-17.678 14.79-18.832 15.945-20.225 16.522-21.852 16.522-23.51 16.522-24.902 15.945-26.027 14.79-27.152 13.636-27.715 12.243-27.715 10.615-27.715 8.957-27.152 7.558-26.027 6.418-24.902 5.278-23.51 4.708-21.852 4.708-20.225 4.708-18.832 5.278-17.678 6.418-16.521 7.558-15.945 8.957-15.945 10.615M-11.193 10.66C-11.193 9.238-11.48 7.921-12.059 6.707-12.637 5.492-13.398 4.427-14.346 3.509-15.322 2.591-16.455 1.866-17.744 1.333-19.031 .8-20.402 .533-21.852 .533-23.303 .533-24.672 .8-25.961 1.333-27.248 1.866-28.381 2.591-29.357 3.509-30.334 4.427-31.111 5.492-31.689 6.707-32.268 7.921-32.555 9.238-32.555 10.66-32.555 12.051-32.268 13.361-31.689 14.591-31.111 15.818-30.334 16.878-29.357 17.766-28.381 18.684-27.248 19.409-25.961 19.942-24.672 20.476-23.303 20.742-21.852 20.742-20.402 20.742-19.031 20.476-17.744 19.942-16.455 19.409-15.322 18.684-14.346 17.766-13.398 16.878-12.637 15.818-12.059 14.591-11.48 13.361-11.193 12.051-11.193 10.66" fill="#ffffff"/>
<path transform="matrix(1,0,0,-1,329.79414,555.1636)" d="M0 0H-4.887V22.251H0V13.946H5.686V9.061H0ZM-16.123 11.681H-27.049V5.5519998H-16.123ZM-31.18-2.354H0V-17.011H-4.887V-6.706H-31.18ZM-31.934 21.407H-27.049V15.944H-16.123V21.407H-11.326V1.421H-31.934Z" fill="#ffffff"/>
<path transform="matrix(1,0,0,-1,-80.2,732.68899)" d="M447.967 195.291H427.13703V190.672H447.967ZM422.297 199.288H452.854V186.719H422.297ZM435.088 177.304V180.057H419.365V184.099H455.785V180.057H440.018V177.304H452.854V167.266H427.137V164.867H453.387V160.826H422.297V171.13H447.967V173.395H422.297V177.304Z" fill="#ffffff"/>
<path transform="matrix(1,0,0,-1,413.6906,558.93899)" d="M0 0H-4.93V26.026H0V15.367H5.064V10.882H0ZM-30.867-12.924V-1.021H-25.937V-8.571H.711V-12.924ZM-15.012 10.394V20.919H-31.889V25.228H-10.17V10.394ZM-7.949 6.618V2.31H-33.664V6.618H-25.627V15.456H-20.74V6.618Z" fill="#ffffff"/>
<path transform="matrix(1,0,0,-1,32.718004,533.9263)" d="M0 0C8.003 6.896 18.404 11.113 29.801 11.214 39.294 11.298 48.13 8.511 55.51 3.68 46.522 11.385 34.846 16.041 22.078 16.041-6.316 16.041-29.329-6.978-29.329-35.37-29.329-43.073-27.636-50.382-24.603-56.941-17.672-71.984-2.465-82.431 15.185-82.431 32.863-82.431 47.992-71.519 54.202-56.067 55.342-53.208 55.964-50.096 55.964-46.84 55.964-36.759 47.796-28.588 37.717-28.588 31.234-28.588 25.535-31.966 22.297-37.064 19.065-42.155 13.372-45.538 6.89-45.538 .18-45.538-5.758-41.938-9.039-36.198-10.275-34.037-10.984-31.733-11.289-29.016-11.425-27.892-11.492-26.705-11.509-25.432-11.6-15.284-7.125-6.16 0 0" fill="#ffffff"/>
<path transform="matrix(1,0,0,-1,63.05681,525.35696)" d="M0 0C21.921 0 43.134-17.097 43.134-43.869 43.134-66.157 28.97-85.199 9.134-92.329 24.542-84.682 35.137-68.793 35.137-50.422 35.137-27.014 16.157-8.038-7.246-8.038-17.38-8.038-26.63-11.817-33.659-18.042-34.464-18.752-35.222-19.525-35.924-20.342-34.02-16.445-31.325-13.003-28.043-10.229-20.482-3.849-10.69 0 0 0" fill="#ffffff"/>
</g>
</g>
</g>
</svg>
