<?xml version="1.0" encoding="utf-8"?>
<!DOCTYPE svg PUBLIC "-//W3C//DTD SVG 1.1//EN" "http://www.w3.org/Graphics/SVG/1.1/DTD/svg11.dtd">
<svg version="1.1" xmlns="http://www.w3.org/2000/svg" xmlns:xlink="http://www.w3.org/1999/xlink" x="0" y="0" width="234" height="86" viewBox="0 0 234 86">
<style type="text/css">
	.st0{fill:none;stroke:#BA8440;stroke-width:10;}
	.st1{fill:url(#SVGID_1_);fill-opacity:0.3;}
	.st2{fill:url(#SVGID_2_);fill-opacity:0.3;}
	.st3{fill:url(#SVGID_3_);fill-opacity:0.3;}
</style>
<line class="st0" x1="9" y1="16.5" x2="63" y2="16.5"/>
<line class="st0" x1="69.9" y1="16.5" x2="82.9" y2="16.5"/>
<line class="st0" x1="90" y1="16.5" x2="224" y2="16.5"/>
<line class="st0" x1="9" y1="37.9" x2="63" y2="37.9"/>
<line class="st0" x1="69.9" y1="37.9" x2="82.9" y2="37.9"/>
<line class="st0" x1="90" y1="37.9" x2="224" y2="37.9"/>
<line class="st0" x1="9" y1="59.5" x2="63" y2="59.5"/>
<line class="st0" x1="69.9" y1="59.5" x2="82.9" y2="59.5"/>
<line class="st0" x1="90" y1="59.5" x2="224" y2="59.5"/>
<linearGradient id="SVGID_1_" gradientUnits="userSpaceOnUse" x1="36" y1="66.0506" x2="36" y2="75.937">
	<stop  offset="0" style="stop-color:#BA8440"/>
	<stop  offset="1" style="stop-color:#BA8440;stop-opacity:0.2"/>
</linearGradient>
<rect x="9" y="65.9" class="st1" width="54" height="10"/>
<linearGradient id="SVGID_2_" gradientUnits="userSpaceOnUse" x1="76.3799" y1="66.0506" x2="76.3799" y2="75.937">
	<stop  offset="0" style="stop-color:#BA8440"/>
	<stop  offset="1" style="stop-color:#BA8440;stop-opacity:0.2"/>
</linearGradient>
<rect x="69.9" y="65.9" class="st2" width="13" height="10"/>
<linearGradient id="SVGID_3_" gradientUnits="userSpaceOnUse" x1="157" y1="66.0506" x2="157" y2="75.937">
	<stop  offset="0" style="stop-color:#BA8440"/>
	<stop  offset="1" style="stop-color:#BA8440;stop-opacity:0.2"/>
</linearGradient>
<rect x="90" y="65.9" class="st3" width="134" height="10"/>
</svg>
