<svg width="211" height="51" viewBox="0 0 211 51" fill="none" xmlns="http://www.w3.org/2000/svg">
<g id="&#234;&#179;&#188;&#237;&#149;&#153;&#234;&#180;&#128;mi" clip-path="url(#clip0_6180_224304)">
<g id="Group">
<path id="Vector" d="M70.2359 45.0045L67.1352 38.1962V45.0045H65.7695V36.6484H67.7978L70.8985 43.4824V36.6484H72.2642V45.0045H70.2359Z" fill="#58595B"/>
<path id="Vector_2" d="M76.3965 41.1322H77.7875C77.7875 40.7414 77.6357 40.4483 77.3373 40.2529C77.0389 40.0575 76.6089 39.9598 76.0424 39.9598H76.007C75.4709 39.9598 74.9044 40.0884 74.3075 40.3455L73.9635 39.281C74.5857 39.0085 75.2685 38.8697 76.0171 38.8594H76.0424C77.0338 38.8594 77.7926 39.0548 78.3237 39.4404C78.8548 39.8261 79.1178 40.4432 79.1178 41.2916V45.0043H77.8431V44.3461C77.5902 44.6032 77.2817 44.7986 76.9175 44.9374C76.5533 45.0763 76.179 45.1482 75.8047 45.1482C75.0966 45.1482 74.525 44.958 74.09 44.5775C73.655 44.1969 73.4375 43.7341 73.4375 43.1839C73.4375 42.5669 73.7106 42.0629 74.2519 41.6619C74.7526 41.3122 75.4709 41.1322 76.3965 41.1322ZM76.0323 44.0684C76.3763 44.0684 76.7202 43.981 77.0591 43.8113C77.398 43.6416 77.6408 43.441 77.7875 43.2199V42.2018H76.5988C75.921 42.2018 75.4506 42.2892 75.1826 42.464C74.9246 42.6646 74.7931 42.9011 74.7931 43.1839C74.7931 43.441 74.9044 43.6519 75.1219 43.8164C75.3444 43.9861 75.6428 44.0684 76.0273 44.0684H76.0323Z" fill="#58595B"/>
<path id="Vector_3" d="M82.3945 37.0676V38.996H83.6793V40.0964H82.3945V43.1508C82.3945 43.4388 82.4654 43.6342 82.6019 43.7422C82.7385 43.8502 82.9358 43.9016 83.1836 43.9016H83.6793V44.9917H82.865C82.2276 44.9917 81.7623 44.8477 81.474 44.5598C81.1806 44.2718 81.039 43.845 81.039 43.2794V40.0912H80.0273V38.9908H81.039V37.0625H82.3945V37.0676Z" fill="#58595B"/>
<path id="Vector_4" d="M86.3565 37.132C86.3565 37.3582 86.2705 37.5536 86.1036 37.7233C85.9367 37.8982 85.7343 37.9804 85.4966 37.9804C85.2589 37.9804 85.0565 37.893 84.8896 37.7233C84.7227 37.5536 84.6367 37.3531 84.6367 37.132C84.6367 36.8903 84.7227 36.6846 84.8896 36.5149C85.0565 36.3452 85.2589 36.2578 85.4966 36.2578C85.7343 36.2578 85.9367 36.3452 86.1036 36.5149C86.2705 36.6846 86.3565 36.8903 86.3565 37.132ZM84.834 45.0046V38.9986H86.1795V45.0046H84.834Z" fill="#58595B"/>
<path id="Vector_5" d="M90.5283 45.1495C89.6633 45.1495 88.9248 44.8461 88.3179 44.2445C87.7109 43.6428 87.4023 42.8972 87.4023 42.0076C87.4023 41.118 87.7058 40.3724 88.3179 39.7656C88.9248 39.1589 89.6633 38.8555 90.5283 38.8555C91.3932 38.8555 92.1418 39.1589 92.7437 39.7656C93.3507 40.3724 93.6491 41.118 93.6491 42.0076C93.6491 42.8972 93.3456 43.6377 92.7437 44.2445C92.1368 44.8461 91.3983 45.1495 90.5283 45.1495ZM90.5283 44.0233C91.0138 44.0233 91.4337 43.8331 91.7827 43.4526C92.1317 43.072 92.3087 42.5938 92.3087 42.0076C92.3087 41.4214 92.1317 40.9535 91.7827 40.5627C91.4337 40.177 91.0138 39.9816 90.5283 39.9816C90.0427 39.9816 89.633 40.177 89.284 40.5627C88.935 40.9483 88.7579 41.4317 88.7579 42.0076C88.7579 42.5835 88.935 43.072 89.284 43.4526C89.633 43.8331 90.0477 44.0233 90.5283 44.0233Z" fill="#58595B"/>
<path id="Vector_6" d="M96.135 41.987V45.0055H94.8047V38.9994H96.0895V39.8016C96.2463 39.524 96.4739 39.2926 96.7723 39.1177C97.0707 38.9429 97.3945 38.8555 97.7384 38.8555C98.4364 38.8555 98.9979 39.0972 99.4177 39.5805C99.8375 40.0639 100.05 40.7067 100.05 41.514V45.0004H98.7045V41.8585C98.7045 41.2209 98.6033 40.7478 98.396 40.4393C98.1936 40.1307 97.875 39.9765 97.4552 39.9765C97.2326 39.9765 97.0202 40.0485 96.8128 40.1976C96.6054 40.3467 96.4435 40.5472 96.3373 40.8043C96.2058 41.1026 96.135 41.4934 96.135 41.9768V41.987Z" fill="#58595B"/>
<path id="Vector_7" d="M104.15 41.1322H105.541C105.541 40.7414 105.39 40.4483 105.091 40.2529C104.793 40.0575 104.363 39.9598 103.796 39.9598H103.761C103.225 39.9598 102.658 40.0884 102.061 40.3455L101.717 39.281C102.34 39.0085 103.022 38.8697 103.771 38.8594H103.796C104.788 38.8594 105.546 39.0548 106.078 39.4404C106.609 39.8261 106.872 40.4432 106.872 41.2916V45.0043H105.597V44.3461C105.344 44.6032 105.036 44.7986 104.671 44.9374C104.307 45.0763 103.933 45.1482 103.559 45.1482C102.85 45.1482 102.279 44.958 101.844 44.5775C101.409 44.1969 101.191 43.7341 101.191 43.1839C101.191 42.5669 101.465 42.0629 102.006 41.6619C102.507 41.3122 103.225 41.1322 104.15 41.1322ZM103.786 44.0684C104.13 44.0684 104.474 43.981 104.813 43.8113C105.152 43.6416 105.395 43.441 105.541 43.2199V42.2018H104.353C103.675 42.2018 103.205 42.2892 102.936 42.464C102.678 42.6646 102.547 42.9011 102.547 43.1839C102.547 43.441 102.658 43.6519 102.876 43.8164C103.098 43.9861 103.397 44.0684 103.781 44.0684H103.786Z" fill="#58595B"/>
<path id="Vector_8" d="M108.426 45.0039V36.0977H109.756V45.0039H108.426Z" fill="#58595B"/>
<path id="Vector_9" d="M114.469 43.316L115.374 42.3802C115.617 42.9098 115.925 43.2955 116.295 43.5423C116.694 43.8148 117.099 43.9485 117.509 43.9485C117.939 43.9485 118.308 43.8354 118.616 43.5989C118.925 43.3777 119.077 43.0795 119.077 42.7144C119.077 42.3853 118.92 42.1231 118.611 41.9174C118.303 41.7117 117.964 41.542 117.605 41.398C117.246 41.2643 116.866 41.1152 116.472 40.9558C115.845 40.7244 115.394 40.421 115.121 40.0456C114.848 39.6702 114.717 39.2743 114.717 38.8578C114.717 38.2099 114.99 37.6597 115.531 37.1969C116.072 36.7392 116.74 36.5078 117.524 36.5078C118.348 36.5078 119.021 36.7238 119.542 37.1557C119.81 37.3614 119.992 37.5928 120.098 37.8499L119.274 38.7344C119.203 38.5904 119.072 38.4258 118.884 38.2407C118.485 37.8756 118.009 37.6905 117.458 37.6905C117.114 37.6905 116.806 37.7882 116.543 37.9836C116.28 38.179 116.148 38.4413 116.148 38.7704C116.148 39.264 116.684 39.7062 117.751 40.0868C117.949 40.1485 118.151 40.2205 118.364 40.3027C119.077 40.5804 119.613 40.9095 119.972 41.29C120.331 41.6705 120.508 42.1385 120.508 42.699C120.508 43.3623 120.23 43.9331 119.674 44.4113C119.122 44.8998 118.414 45.1415 117.539 45.1415C116.74 45.1415 116.072 44.9564 115.546 44.5913C115.035 44.2313 114.676 43.8045 114.474 43.3109L114.469 43.316Z" fill="#58595B"/>
<path id="Vector_10" d="M121.316 42.0115C121.316 41.1476 121.635 40.4072 122.277 39.7901C122.92 39.173 123.729 38.8594 124.71 38.8594C125.479 38.8594 126.203 39.1113 126.88 39.6153L126.445 40.6797C125.859 40.2169 125.277 39.9855 124.71 39.9855C124.103 39.9855 123.613 40.1809 123.238 40.5717C122.859 40.9625 122.672 41.4407 122.672 42.0115C122.672 42.5823 122.859 43.0554 123.238 43.4462C123.618 43.8318 124.108 44.0273 124.71 44.0273C125.282 44.0273 125.869 43.801 126.466 43.3433L126.901 44.4078C126.248 44.9014 125.52 45.1534 124.71 45.1534C123.729 45.1534 122.915 44.8449 122.277 44.2329C121.635 43.6159 121.316 42.8805 121.316 42.0167V42.0115Z" fill="#58595B"/>
<path id="Vector_11" d="M129.665 37.132C129.665 37.3582 129.579 37.5536 129.412 37.7233C129.245 37.8982 129.043 37.9804 128.805 37.9804C128.567 37.9804 128.365 37.893 128.198 37.7233C128.031 37.5536 127.945 37.3531 127.945 37.132C127.945 36.8903 128.031 36.6846 128.198 36.5149C128.365 36.3452 128.567 36.2578 128.805 36.2578C129.043 36.2578 129.245 36.3452 129.412 36.5149C129.579 36.6846 129.665 36.8903 129.665 37.132ZM128.143 45.0046V38.9986H129.488V45.0046H128.143Z" fill="#58595B"/>
<path id="Vector_12" d="M132.113 42.608C132.194 42.9731 132.361 43.2765 132.619 43.5079C132.998 43.8576 133.494 44.0375 134.116 44.0375C134.769 44.0375 135.376 43.7959 135.942 43.3073L136.342 44.3152C135.704 44.8757 134.951 45.1534 134.076 45.1534C133.079 45.1534 132.265 44.8654 131.643 44.2895C131.021 43.7136 130.707 42.9577 130.707 42.027C130.707 41.0962 130.985 40.3506 131.537 39.7541C132.093 39.1576 132.816 38.8594 133.712 38.8594C134.607 38.8594 135.315 39.1576 135.876 39.7438C136.438 40.3352 136.721 41.0654 136.721 41.9344C136.721 42.1761 136.701 42.3972 136.66 42.608H132.108H132.113ZM132.088 41.5282H135.366C135.35 41.1374 135.189 40.7774 134.88 40.4534C134.571 40.1295 134.187 39.9701 133.712 39.9701C133.236 39.9701 132.821 40.1449 132.508 40.4997C132.28 40.762 132.138 41.1065 132.083 41.5282H132.088Z" fill="#58595B"/>
<path id="Vector_13" d="M139.194 41.987V45.0055H137.863V38.9994H139.148V39.8016C139.305 39.524 139.532 39.2926 139.831 39.1177C140.129 38.9429 140.453 38.8555 140.797 38.8555C141.495 38.8555 142.056 39.0972 142.476 39.5805C142.896 40.0639 143.109 40.7067 143.109 41.514V45.0004H141.763V41.8585C141.763 41.2209 141.662 40.7478 141.455 40.4393C141.252 40.1307 140.934 39.9765 140.514 39.9765C140.291 39.9765 140.079 40.0485 139.871 40.1976C139.664 40.3467 139.502 40.5472 139.396 40.8043C139.264 41.1026 139.194 41.4934 139.194 41.9768V41.987Z" fill="#58595B"/>
<path id="Vector_14" d="M144.25 42.0115C144.25 41.1476 144.569 40.4072 145.211 39.7901C145.853 39.173 146.663 38.8594 147.644 38.8594C148.413 38.8594 149.136 39.1113 149.814 39.6153L149.379 40.6797C148.792 40.2169 148.211 39.9855 147.644 39.9855C147.037 39.9855 146.546 40.1809 146.172 40.5717C145.793 40.9625 145.606 41.4407 145.606 42.0115C145.606 42.5823 145.793 43.0554 146.172 43.4462C146.551 43.8318 147.042 44.0273 147.644 44.0273C148.216 44.0273 148.802 43.801 149.399 43.3433L149.834 44.4078C149.182 44.9014 148.453 45.1534 147.644 45.1534C146.663 45.1534 145.848 44.8449 145.211 44.2329C144.569 43.6159 144.25 42.8805 144.25 42.0167V42.0115Z" fill="#58595B"/>
<path id="Vector_15" d="M152.031 42.608C152.112 42.9731 152.279 43.2765 152.537 43.5079C152.916 43.8576 153.412 44.0375 154.034 44.0375C154.687 44.0375 155.294 43.7959 155.86 43.3073L156.26 44.3152C155.622 44.8757 154.869 45.1534 153.994 45.1534C152.997 45.1534 152.183 44.8654 151.561 44.2895C150.939 43.7136 150.625 42.9577 150.625 42.027C150.625 41.0962 150.903 40.3506 151.455 39.7541C152.011 39.1576 152.734 38.8594 153.63 38.8594C154.525 38.8594 155.233 39.1576 155.794 39.7438C156.356 40.3352 156.639 41.0654 156.639 41.9344C156.639 42.1761 156.619 42.3972 156.578 42.608H152.026H152.031ZM152.006 41.5282H155.284C155.268 41.1374 155.107 40.7774 154.798 40.4534C154.489 40.1295 154.105 39.9701 153.63 39.9701C153.154 39.9701 152.739 40.1449 152.426 40.4997C152.198 40.762 152.056 41.1065 152.001 41.5282H152.006Z" fill="#58595B"/>
<path id="Vector_16" d="M169.376 36.6523V45.0084H168.056V38.2824L165.911 45.0084H164.637L162.492 38.2824V45.0084H161.172V36.6523H163.2L165.274 43.1623L167.348 36.6523H169.376Z" fill="#58595B"/>
<path id="Vector_17" d="M174.878 42.0263V39.0078H176.223V45.0139H174.938V44.222C174.771 44.5202 174.554 44.7413 174.276 44.8956C173.952 45.0704 173.618 45.1578 173.274 45.1578C172.581 45.1578 172.025 44.9162 171.605 44.4379C171.185 43.9597 170.973 43.3118 170.973 42.4942V39.0078H172.303V42.16C172.303 42.7924 172.409 43.2604 172.617 43.5689C172.824 43.8774 173.143 44.0317 173.567 44.0317C173.78 44.0317 173.992 43.9597 174.205 43.8106C174.417 43.6615 174.579 43.4661 174.69 43.2192C174.817 42.9261 174.878 42.5302 174.878 42.0314V42.0263Z" fill="#58595B"/>
<path id="Vector_18" d="M177.237 43.8936L178.071 43.0194C178.309 43.3485 178.567 43.6005 178.85 43.7856C179.123 43.9553 179.422 44.0375 179.735 44.0375C180.049 44.0375 180.287 43.9758 180.494 43.8524C180.701 43.729 180.808 43.5645 180.808 43.3536C180.808 43.1428 180.707 42.9834 180.509 42.8703C180.307 42.7571 180.069 42.644 179.796 42.5412C179.472 42.4383 179.144 42.3201 178.805 42.1915C178.349 42.0218 178.016 41.8058 177.803 41.5436C177.591 41.2813 177.485 40.9779 177.485 40.6437C177.485 40.1501 177.712 39.7284 178.167 39.3787C178.623 39.0291 179.164 38.8594 179.781 38.8594C180.444 38.8594 180.98 39.0188 181.394 39.3376C181.607 39.5073 181.774 39.713 181.9 39.9598L181.076 40.7774C180.965 40.5871 180.838 40.4277 180.686 40.3095C180.428 40.0781 180.1 39.9598 179.71 39.9598C179.482 39.9598 179.285 40.0164 179.113 40.1346C178.946 40.2478 178.86 40.3866 178.86 40.546C178.86 40.7208 178.956 40.87 179.144 40.9882C179.331 41.1065 179.609 41.2248 179.978 41.3379C180.11 41.379 180.267 41.4253 180.438 41.4819C181.01 41.6721 181.445 41.919 181.743 42.2224C182.037 42.5257 182.184 42.8908 182.184 43.3125C182.184 43.8061 181.946 44.2381 181.475 44.6032C181.005 44.9683 180.403 45.1482 179.67 45.1482C179.058 45.1482 178.516 45.0043 178.041 44.7163C177.727 44.526 177.454 44.2484 177.227 43.8884L177.237 43.8936Z" fill="#58595B"/>
<path id="Vector_19" d="M184.234 42.6119C184.315 42.977 184.482 43.2804 184.74 43.5118C185.119 43.8615 185.615 44.0414 186.237 44.0414C186.89 44.0414 187.497 43.7998 188.063 43.3113L188.463 44.3191C187.826 44.8796 187.072 45.1573 186.197 45.1573C185.2 45.1573 184.386 44.8693 183.764 44.2934C183.142 43.7175 182.828 42.9616 182.828 42.0309C182.828 41.1001 183.106 40.3545 183.658 39.758C184.214 39.1615 184.937 38.8633 185.833 38.8633C186.728 38.8633 187.436 39.1615 187.998 39.7477C188.559 40.3391 188.842 41.0693 188.842 41.9383C188.842 42.18 188.822 42.4011 188.782 42.6119H184.229H184.234ZM184.209 41.5321H187.487C187.472 41.1413 187.31 40.7813 187.001 40.4574C186.693 40.1334 186.303 39.974 185.833 39.974C185.362 39.974 184.942 40.1488 184.629 40.5036C184.401 40.7659 184.26 41.1104 184.204 41.5321H184.209Z" fill="#58595B"/>
<path id="Vector_20" d="M193.885 42.0263V39.0078H195.231V45.0139H193.946V44.222C193.779 44.5202 193.562 44.7413 193.283 44.8956C192.96 45.0704 192.626 45.1578 192.282 45.1578C191.589 45.1578 191.033 44.9162 190.613 44.4379C190.193 43.9597 189.98 43.3118 189.98 42.4942V39.0078H191.311V42.16C191.311 42.7924 191.417 43.2604 191.624 43.5689C191.832 43.8774 192.15 44.0317 192.575 44.0317C192.788 44.0317 193 43.9597 193.213 43.8106C193.425 43.6615 193.587 43.4661 193.698 43.2192C193.825 42.9261 193.885 42.5302 193.885 42.0314V42.0263Z" fill="#58595B"/>
<path id="Vector_21" d="M203.056 38.8592C203.749 38.8592 204.285 39.1009 204.67 39.5842C205.054 40.0676 205.246 40.7104 205.246 41.5177V45.0041H203.926V41.8622C203.926 41.2246 203.84 40.7515 203.673 40.443C203.506 40.1344 203.228 39.9802 202.844 39.9802C202.616 39.9802 202.419 40.047 202.247 40.1756C202.08 40.3093 201.943 40.4995 201.842 40.7566C201.731 41.0189 201.675 41.3891 201.675 41.8571V44.9989H200.355V41.8571C200.355 41.2194 200.269 40.7464 200.097 40.4378C199.925 40.1293 199.647 39.975 199.273 39.975C199.045 39.975 198.848 40.0419 198.691 40.1704C198.529 40.3041 198.392 40.4944 198.286 40.7515C198.17 41.0446 198.109 41.4405 198.109 41.9239V41.9136V44.9938H196.789V38.9877H198.038V39.7899C198.367 39.1574 198.878 38.8438 199.571 38.8438C200.31 38.8438 200.851 39.2088 201.2 39.9339C201.402 39.5739 201.65 39.3014 201.938 39.1214C202.227 38.9363 202.601 38.8438 203.066 38.8438L203.056 38.8592Z" fill="#58595B"/>
</g>
<g id="Group_2">
<path id="Vector_22" d="M74.726 20.0956V17.1234H66.7695V14.8866H85.1963V17.1234H77.2196V20.0956H83.7143V27.202H81.2206V22.3118H68.029V20.0956H74.726ZM83.6688 7.18359V13.2616H81.1751V9.42558H68.206V7.18874H83.6688V7.18359Z" fill="#58595B"/>
<path id="Vector_23" d="M99.3131 17.7583H88.5039V11.5415H96.6171V9.51031H88.5039V7.36088H99.0906V13.5983H90.9773V15.6552H99.3131V17.7583ZM89.6268 18.8331H92.0749V20.5248H102.884V18.8331H105.332V26.7366H89.6218V18.8331H89.6268ZM102.884 22.5817H92.0749V24.6386H102.884V22.5817ZM102.839 6.76953H105.332V18.1491H102.839V6.76953Z" fill="#58595B"/>
<path id="Vector_24" d="M116.71 18.7424V17.5083H108.754V15.3383H127.181V17.5083H119.204V18.7424C119.457 18.8041 119.7 18.8813 119.922 18.9687C120.534 19.2258 121.07 19.5703 121.516 19.9971C121.961 20.4239 122.325 20.9227 122.593 21.4935C122.861 22.0643 122.998 22.6762 122.998 23.3344C122.998 23.9926 122.861 24.6045 122.593 25.1753C122.325 25.7461 121.966 26.2449 121.516 26.6717C121.065 27.0985 120.534 27.4378 119.922 27.6898C119.31 27.9418 118.658 28.0652 117.965 28.0652C117.272 28.0652 116.624 27.9418 116.007 27.6898C115.395 27.4378 114.859 27.0985 114.414 26.6717C113.964 26.2449 113.605 25.7461 113.337 25.1753C113.068 24.6045 112.932 23.9926 112.932 23.3344C112.932 22.6762 113.068 22.0643 113.337 21.4935C113.605 20.9227 113.964 20.4239 114.414 19.9971C114.864 19.5703 115.395 19.2258 116.007 18.9687C116.23 18.8761 116.463 18.799 116.705 18.7424H116.71ZM125.876 9.17286H119.113L126.26 13.0089L125.112 14.8807L117.965 11.0189L110.797 14.8807L109.674 13.0089L116.822 9.17286H110.059V7.02344H125.881V9.17286H125.876ZM120.549 23.3395C120.549 22.6402 120.292 22.0334 119.776 21.5243C119.26 21.0153 118.658 20.7582 117.965 20.7582C117.272 20.7582 116.675 21.0153 116.154 21.5243C115.638 22.0334 115.38 22.6402 115.38 23.3395C115.38 24.0389 115.638 24.6456 116.154 25.1547C116.67 25.6638 117.272 25.9209 117.965 25.9209C118.658 25.9209 119.255 25.6638 119.776 25.1547C120.292 24.6456 120.549 24.0389 120.549 23.3395Z" fill="#58595B"/>
<path id="Vector_25" d="M140.326 12.0968C140.326 12.827 140.179 13.5058 139.886 14.128C139.593 14.7502 139.208 15.3004 138.728 15.7735C138.232 16.2465 137.66 16.6168 137.008 16.8945C136.355 17.167 135.662 17.3058 134.929 17.3058C134.196 17.3058 133.503 17.167 132.85 16.8945C132.198 16.6219 131.626 16.2465 131.13 15.7735C130.635 15.3004 130.245 14.7553 129.952 14.128C129.658 13.5058 129.512 12.827 129.512 12.0968C129.512 11.3666 129.658 10.7084 129.952 10.0759C130.245 9.44346 130.64 8.89839 131.13 8.44074C131.626 7.96766 132.198 7.59742 132.85 7.31974C133.503 7.04721 134.196 6.90837 134.929 6.90837C135.662 6.90837 136.355 7.04721 137.008 7.31974C137.66 7.59228 138.232 7.96766 138.728 8.44074C139.208 8.89839 139.593 9.44346 139.886 10.0759C140.179 10.7084 140.326 11.3821 140.326 12.0968ZM137.923 12.1174C137.923 11.2792 137.63 10.5644 137.048 9.96796C136.462 9.37147 135.759 9.07836 134.934 9.07836C134.11 9.07836 133.391 9.37661 132.82 9.96796C132.248 10.5644 131.965 11.2792 131.965 12.1174C131.965 12.9556 132.248 13.6909 132.82 14.2771C133.391 14.8633 134.094 15.1564 134.934 15.1564C135.774 15.1564 136.462 14.8633 137.048 14.2771C137.635 13.6909 137.923 12.971 137.923 12.1174ZM145.091 22.6948C145.091 23.3942 144.949 24.0523 144.666 24.6694C144.383 25.2865 144.008 25.8213 143.543 26.2789C143.047 26.752 142.481 27.1222 141.848 27.3999C141.211 27.6724 140.528 27.8113 139.79 27.8113C139.051 27.8113 138.368 27.6724 137.721 27.3999C137.079 27.1274 136.507 26.752 136.011 26.2789C135.531 25.8213 135.152 25.2865 134.863 24.6694C134.58 24.0523 134.438 23.3942 134.438 22.6948C134.438 21.9955 134.58 21.3321 134.863 20.7048C135.146 20.0826 135.531 19.5478 136.011 19.1056C136.507 18.6325 137.074 18.2623 137.721 17.9846C138.363 17.7121 139.056 17.5732 139.79 17.5732C140.523 17.5732 141.211 17.7121 141.848 17.9846C142.486 18.2571 143.052 18.6325 143.543 19.1056C144.008 19.5478 144.383 20.0826 144.666 20.7048C144.949 21.327 145.091 21.9903 145.091 22.6948ZM142.668 22.6743C142.668 21.8824 142.385 21.1984 141.813 20.6174C141.242 20.0415 140.564 19.7484 139.77 19.7484C138.975 19.7484 138.298 20.0363 137.736 20.6174C137.175 21.1984 136.892 21.8824 136.892 22.6743C136.892 23.4661 137.175 24.1655 137.736 24.7311C138.298 25.2916 138.975 25.5744 139.77 25.5744C140.564 25.5744 141.247 25.2916 141.813 24.7311C142.385 24.1655 142.668 23.4816 142.668 22.6743ZM145.991 17.5784H143.518V6.76953H145.991V10.8576H148.869V13.3721H145.991V17.5784Z" fill="#58595B"/>
<path id="Vector_26" d="M163.429 22.8542V25.1168H150.414V22.8542H154.506V16.1591H156.98V22.8542H163.429ZM159.721 20.4785V10.1274H151.158V7.89052H162.169V20.4785H159.721ZM167.45 27.1531H164.956V6.76953H167.45V15.3621H170.014V17.7635H167.45V27.1531Z" fill="#58595B"/>
<path id="Vector_27" d="M183.051 8.05115V10.2469H171.367V8.05115H175.95V6.35938H178.58V8.05115H183.051ZM172.197 20.2072H187.973V26.9692H185.5V22.4441H172.197V20.2072ZM181.903 14.9725C181.903 15.569 181.782 16.1295 181.534 16.6643C181.286 17.1991 180.962 17.6619 180.558 18.0578C180.123 18.4383 179.627 18.7469 179.076 18.9834C178.519 19.2199 177.923 19.3382 177.28 19.3382C176.638 19.3382 176.031 19.2199 175.469 18.9834C174.908 18.7469 174.417 18.4383 173.997 18.0578C173.578 17.6619 173.244 17.1991 172.996 16.6643C172.748 16.1295 172.627 15.569 172.627 14.9725C172.627 14.376 172.748 13.8207 172.996 13.291C173.244 12.7665 173.578 12.3037 173.997 11.9078C174.417 11.5273 174.908 11.2187 175.469 10.9822C176.031 10.7456 176.633 10.6274 177.28 10.6274C177.928 10.6274 178.524 10.7456 179.076 10.9822C179.632 11.2187 180.123 11.5273 180.558 11.9078C180.962 12.3037 181.286 12.7665 181.534 13.291C181.782 13.8155 181.903 14.376 181.903 14.9725ZM179.521 14.9519C179.521 14.3452 179.298 13.8207 178.858 13.3887C178.418 12.9568 177.887 12.7357 177.275 12.7357C176.663 12.7357 176.137 12.9516 175.702 13.3887C175.267 13.8207 175.05 14.3452 175.05 14.9519C175.05 15.5587 175.267 16.0884 175.702 16.5306C176.137 16.9728 176.658 17.1939 177.275 17.1939C177.892 17.1939 178.418 16.9728 178.858 16.5306C179.298 16.0884 179.521 15.5639 179.521 14.9519ZM187.973 19.0657H185.5V6.77075H187.973V11.5478H190.851V14.0366H187.973V19.0605V19.0657Z" fill="#58595B"/>
<path id="Vector_28" d="M205.413 16.7556V18.9719H192.398V16.7556H196.465V12.2099H198.939V16.7556H205.413ZM201.837 14.8119V9.39718H193.299V7.1809H204.29V14.8119H201.842H201.837ZM193.815 26.8086V20.6842H196.308V24.5666H209.793V26.8034H193.815V26.8086ZM209.434 20.1597H206.941V6.76953H209.434V12.2511H211.999V14.5599H209.434V20.1597Z" fill="#58595B"/>
</g>
<g id="Group 34651">
<path id="Vector_29" d="M51.69 25.6177C51.69 39.7677 40.1205 51.2354 25.845 51.2354C11.5695 51.2354 0 39.7677 0 25.6177C0 11.4677 11.5695 0 25.845 0C40.1205 0 51.69 11.4677 51.69 25.6177Z" fill="white"/>
<path id="Vector_30" d="M38.0007 23.8347C33.885 21.0641 28.6187 22.1965 25.856 26.3563C23.5551 29.8416 20.0712 30.2753 18.7263 30.2753C14.3189 30.2753 11.3212 27.2076 10.4219 24.0355C10.4219 24.0355 10.4057 23.9712 10.3976 23.9471C10.3895 23.915 10.3814 23.8749 10.3733 23.8428C10.0249 22.5177 9.93579 21.8833 9.93579 20.4779C9.93579 12.889 17.7946 4.44074 29.0967 4.44074C40.3989 4.44074 47.3098 13.1781 49.0193 18.0366C48.9869 17.9483 48.9545 17.8599 48.9301 17.7796C45.6327 8.27135 36.5424 1.44531 25.8398 1.44531C12.3745 1.44531 1.45312 12.2626 1.45312 25.6175C1.45312 37.551 10.1383 47.766 22.1858 47.766C31.7947 47.766 38.2519 42.4256 41.2091 35.0696C42.8375 31.0462 41.6871 26.3162 38.0007 23.8347Z" fill="#003964"/>
<path id="Vector_31" d="M49.1554 18.5033C47.7294 13.7652 41.0535 4.43359 29.0789 4.43359C17.7687 4.43359 9.91797 12.8818 9.91797 20.4708C9.91797 21.8761 10.0071 22.5105 10.3555 23.8356C10.2096 23.2574 10.1367 22.6792 10.1367 22.109C10.1367 14.2069 18.1171 8.73801 26.3162 8.73801C37.4239 8.73801 46.425 17.66 46.425 28.67C46.425 37.2949 41.4181 44.7715 34.1426 48.3612C43.5246 44.9963 50.2248 36.0903 50.2248 25.6264C50.2248 23.153 49.8927 20.9687 49.1554 18.5113" fill="#ED1A3B"/>
</g>
</g>
<defs>
<clipPath id="clip0_6180_224304">
<rect width="211" height="51" fill="white"/>
</clipPath>
</defs>
</svg>
